<?xml version="1.0" standalone="no"?>
<!DOCTYPE svg PUBLIC "-//W3C//DTD SVG 20010904//EN"
 "http://www.w3.org/TR/2001/REC-SVG-20010904/DTD/svg10.dtd">
<svg version="1.0" xmlns="http://www.w3.org/2000/svg"
 width="317.000000pt" height="317.000000pt" viewBox="0 0 317.000000 317.000000"
 preserveAspectRatio="xMidYMid meet">
<metadata>
Created by potrace 1.11, written by Peter Selinger 2001-2013
</metadata>
<g transform="translate(0.000000,317.000000) scale(0.100000,-0.100000)"
fill="#000000" stroke="none">
<path d="M1508 3133 c-9 -10 -23 -33 -32 -50 -14 -27 -22 -33 -50 -33 -49 0
-154 -35 -208 -69 -57 -37 -109 -105 -143 -190 -15 -36 -60 -196 -101 -355
-41 -160 -106 -394 -144 -521 -124 -414 -156 -568 -167 -796 -15 -332 64 -580
246 -773 132 -139 287 -229 491 -287 72 -20 108 -23 235 -24 127 0 162 3 229
23 348 101 600 365 688 719 17 72 22 118 22 248 0 256 -38 413 -183 762 -95
229 -127 321 -231 668 -93 310 -128 393 -201 470 -68 72 -182 124 -271 125
-21 0 -31 8 -44 33 -27 53 -44 67 -84 67 -23 0 -43 -7 -52 -17z m91 -29 c12
-15 21 -31 21 -35 0 -5 -27 -9 -60 -9 l-61 0 16 29 c24 48 54 53 84 15z m109
-84 c133 -22 234 -92 296 -204 43 -77 77 -172 127 -356 62 -226 133 -435 234
-685 145 -357 185 -520 185 -747 0 -276 -82 -496 -249 -671 -93 -98 -169 -152
-292 -211 -145 -70 -198 -81 -379 -80 -139 0 -165 3 -245 28 -171 51 -305 128
-424 240 -202 193 -281 426 -268 784 9 236 38 382 154 757 35 116 100 347 143
515 84 328 94 359 134 438 50 99 121 155 237 186 64 17 256 20 347 6z"/>
<path d="M1405 2896 c-76 -19 -127 -50 -178 -106 -62 -69 -99 -168 -154 -415
-25 -110 -76 -308 -113 -440 -141 -494 -155 -571 -154 -850 1 -244 13 -307 88
-460 83 -168 204 -286 381 -375 130 -65 229 -90 360 -90 237 0 456 110 616
307 126 158 179 311 186 552 9 258 -19 390 -157 751 -45 117 -118 341 -169
516 -49 170 -99 333 -110 361 -56 141 -144 223 -273 253 -59 13 -262 11 -323
-4z m345 -35 c113 -35 175 -97 226 -222 14 -33 52 -157 85 -277 70 -253 131
-443 204 -633 29 -74 64 -172 79 -216 197 -625 -12 -1145 -524 -1304 -96 -30
-261 -32 -360 -5 -147 40 -309 135 -405 237 -153 163 -213 325 -222 604 -8
240 22 423 126 786 27 95 86 317 130 493 99 395 131 465 237 517 68 32 95 37
236 38 99 1 140 -3 188 -18z"/>
<path d="M1476 1565 c-133 -37 -269 -141 -329 -252 -34 -64 -67 -190 -67 -257
1 -251 179 -469 425 -521 88 -19 144 -19 223 0 188 45 347 201 396 391 70 273
-96 556 -373 638 -66 19 -206 20 -275 1z m229 -20 c337 -71 504 -422 348 -730
-35 -68 -145 -175 -214 -209 -152 -74 -302 -75 -445 -5 -314 155 -381 561
-133 808 67 67 156 117 242 136 82 18 118 18 202 0z"/>
</g>
</svg>
