<?xml version="1.0" encoding="UTF-8" standalone="no"?>
<svg
   xmlns:dc="http://purl.org/dc/elements/1.1/"
   xmlns:cc="http://creativecommons.org/ns#"
   xmlns:rdf="http://www.w3.org/1999/02/22-rdf-syntax-ns#"
   xmlns:svg="http://www.w3.org/2000/svg"
   xmlns="http://www.w3.org/2000/svg"
   xmlns:sodipodi="http://sodipodi.sourceforge.net/DTD/sodipodi-0.dtd"
   xmlns:inkscape="http://www.inkscape.org/namespaces/inkscape"
   version="1.1"
   x="0px"
   y="0px"
   viewBox="0 0 125 100"
   enable-background="new 0 0 100 100"
   xml:space="preserve"
   id="svg8"
   sodipodi:docname="network.svg"
   inkscape:version="0.92.4 (5da689c313, 2019-01-14)"
   width="125"
   height="100"><metadata
     id="metadata14"><rdf:RDF><cc:Work
         rdf:about=""><dc:format>image/svg+xml</dc:format><dc:type
           rdf:resource="http://purl.org/dc/dcmitype/StillImage" /><dc:title></dc:title></cc:Work></rdf:RDF></metadata><defs
     id="defs12" /><sodipodi:namedview
     pagecolor="#ffffff"
     bordercolor="#666666"
     borderopacity="1"
     objecttolerance="10"
     gridtolerance="10"
     guidetolerance="10"
     inkscape:pageopacity="0"
     inkscape:pageshadow="2"
     inkscape:window-width="2434"
     inkscape:window-height="1400"
     id="namedview10"
     showgrid="false"
     inkscape:zoom="7.552"
     inkscape:cx="31.642554"
     inkscape:cy="62.102754"
     inkscape:window-x="114"
     inkscape:window-y="-12"
     inkscape:window-maximized="1"
     inkscape:current-layer="svg8" /><path
     d="m 102.32737,39.776237 c -1.498,0 -2.908997,0.367 -4.159997,1.005 l -11.127,-12.068 c 0.649,-1.261 1.023,-2.686 1.023,-4.199 0,-5.075 -4.129,-9.203 -9.203,-9.203 -4.387,0 -8.061,3.088 -8.977,7.203 h -15.932 c -0.917,-4.115 -4.591,-7.203 -8.978,-7.203 -5.074,0 -9.203,4.128 -9.203,9.203 0,1.513 0.374,2.938 1.023,4.199 l -11.126,12.068 c -1.251,-0.638 -2.663,-1.005 -4.161,-1.005 -5.074,0 -9.203,4.128 -9.203,9.203 0,5.074 4.128,9.203 9.203,9.203 1.168,0 2.283,-0.228 3.312,-0.627 l 11.976,12.989 c -0.65,1.261 -1.024,2.686 -1.024,4.199 0,5.074 4.128,9.203 9.203,9.203 4.387,0 8.061,-3.088 8.978,-7.203 h 15.933 c 0.916,4.115 4.59,7.203 8.977,7.203 5.074,0 9.203,-4.129 9.203,-9.203 0,-1.513 -0.374,-2.938 -1.023,-4.198 l 11.976,-12.99 c 1.028997,0.399 2.143997,0.627 3.311997,0.627 5.074,0 9.203,-4.129 9.203,-9.203 -0.002,-5.074 -4.131,-9.203 -9.205,-9.203 z m -23.466997,25.765 c -1.085,0 -2.122,0.198 -3.09,0.545 l -7.246,-10.066 c 1.604,-1.656 2.596,-3.908 2.596,-6.391 0,-2.459 -0.976,-4.69 -2.552,-6.343 l 7.263,-10.092 c 0.95,0.333 1.967,0.523 3.029,0.523 2.104,0 4.039,-0.717 5.591,-1.91 l 10.626,11.525 c -1.219,1.561 -1.952,3.518 -1.952,5.647 0,2.447 0.967,4.669 2.53,6.319 l -11.203,12.154 c -1.552,-1.193 -3.487,-1.911 -5.592,-1.911 z m -33.887,0 c -2.104,0 -4.039,0.718 -5.591,1.91 l -11.204,-12.151 c 1.564,-1.65 2.531,-3.872 2.531,-6.32 0,-2.13 -0.734,-4.087 -1.953,-5.648 l 10.625,-11.525 c 1.552,1.193 3.488,1.911 5.592,1.911 0.812,0 1.595,-0.116 2.346,-0.314 l 7.483,10.398 c -1.303,1.587 -2.088,3.617 -2.088,5.827 0,2.233 0.801,4.282 2.129,5.878 l -7.46,10.365 c -0.769,-0.209 -1.575,-0.331 -2.41,-0.331 z m 8.978,-39.027 h 15.933 c 0.393,1.766 1.292,3.342 2.54,4.566 l -7.18,9.978 c -1.034,-0.402 -2.153,-0.632 -3.327,-0.632 -1.419,0 -2.759,0.333 -3.96,0.909 l -7.05,-9.796 c 1.509,-1.278 2.599,-3.03 3.044,-5.025 z m 2.763,23.115 c 0,-2.869 2.334,-5.203 5.203,-5.203 2.869,0 5.203,2.334 5.203,5.203 0,2.869 -2.334,5.203 -5.203,5.203 -2.869,0 -5.203,-2.334 -5.203,-5.203 z m -5.763,18.132 7.061,-9.811 c 1.188,0.56 2.508,0.882 3.905,0.882 1.151,0 2.249,-0.222 3.266,-0.609 l 7.196,9.997 c -1.226,1.218 -2.106,2.779 -2.495,4.524 h -15.933 c -0.44,-1.974 -1.514,-3.71 -3,-4.983 z m 27.909,-48.45 c 2.869,0 5.203,2.334 5.203,5.203 0,2.869 -2.334,5.203 -5.203,5.203 -2.868,0 -5.202,-2.334 -5.202,-5.203 0,-2.869 2.334,-5.203 5.202,-5.203 z m -33.887,0 c 2.869,0 5.203,2.334 5.203,5.203 0,2.869 -2.334,5.203 -5.203,5.203 -2.869,0 -5.203,-2.334 -5.203,-5.203 0,-2.869 2.335,-5.203 5.203,-5.203 z m -28.669,29.669 c 0,-2.869 2.334,-5.203 5.203,-5.203 2.869,0 5.203,2.334 5.203,5.203 0,2.869 -2.334,5.203 -5.203,5.203 -2.869,0 -5.203,-2.334 -5.203,-5.203 z m 28.669,30.967 c -2.869,0 -5.203,-2.334 -5.203,-5.203 0,-2.869 2.334,-5.203 5.203,-5.203 0.645,0 1.256,0.133 1.826,0.349 0.033,0.026 0.061,0.059 0.096,0.084 0.219,0.157 0.46,0.247 0.708,0.306 1.533,0.906 2.574,2.559 2.574,4.465 -0.001,2.868 -2.335,5.202 -5.204,5.202 z m 33.887,0 c -2.868,0 -5.202,-2.334 -5.202,-5.203 0,-2.869 2.334,-5.203 5.202,-5.203 2.869,0 5.203,2.334 5.203,5.203 0,2.869 -2.333,5.203 -5.203,5.203 z m 23.466997,-25.764 c -2.867997,0 -5.201997,-2.334 -5.201997,-5.203 0,-2.869 2.334,-5.203 5.201997,-5.203 2.869,0 5.203,2.334 5.203,5.203 0,2.869 -2.334,5.203 -5.203,5.203 z"
     id="path2"
     inkscape:connector-curvature="0" /><text
     x="0"
     y="90"
     font-size="5px"
     font-weight="bold"
     id="text4"
     style="font-weight:bold;font-size:5px;font-family:'Helvetica Neue', Helvetica, Arial-Unicode, Arial, Sans-serif;fill:#000000" />
<text
     x="0"
     y="95"
     font-size="5px"
     font-weight="bold"
     id="text6"
     style="font-weight:bold;font-size:5px;font-family:'Helvetica Neue', Helvetica, Arial-Unicode, Arial, Sans-serif;fill:#000000" />
</svg>