<?xml version="1.0" encoding="UTF-8" standalone="no"?>
<!-- Generator: Adobe Illustrator 16.0.4, SVG Export Plug-In . SVG Version: 6.00 Build 0)  -->

<svg
   xmlns:dc="http://purl.org/dc/elements/1.1/"
   xmlns:cc="http://creativecommons.org/ns#"
   xmlns:rdf="http://www.w3.org/1999/02/22-rdf-syntax-ns#"
   xmlns:svg="http://www.w3.org/2000/svg"
   xmlns="http://www.w3.org/2000/svg"
   xmlns:sodipodi="http://sodipodi.sourceforge.net/DTD/sodipodi-0.dtd"
   xmlns:inkscape="http://www.inkscape.org/namespaces/inkscape"
   version="1.1"
   x="0px"
   y="0px"
   width="1000"
   height="400"
   viewBox="0 0 1000 400"
   enable-background="new 0 0 800 800"
   xml:space="preserve"
   id="svg20"
   sodipodi:docname="newyork2.svg"
   inkscape:version="0.92.4 (5da689c313, 2019-01-14)"><metadata
   id="metadata26"><rdf:RDF><cc:Work
       rdf:about=""><dc:format>image/svg+xml</dc:format><dc:type
         rdf:resource="http://purl.org/dc/dcmitype/StillImage" /><dc:title /></cc:Work></rdf:RDF></metadata><defs
   id="defs24" /><sodipodi:namedview
   pagecolor="#ffffff"
   bordercolor="#666666"
   borderopacity="1"
   objecttolerance="10"
   gridtolerance="10"
   guidetolerance="10"
   inkscape:pageopacity="0"
   inkscape:pageshadow="2"
   inkscape:window-width="2434"
   inkscape:window-height="1400"
   id="namedview22"
   showgrid="false"
   inkscape:zoom="2.36"
   inkscape:cx="398.93184"
   inkscape:cy="201.01282"
   inkscape:window-x="114"
   inkscape:window-y="-12"
   inkscape:window-maximized="1"
   inkscape:current-layer="Layer_2" />
<g
   id="object"
   display="none"
   style="display:none"
   transform="translate(0,-400)">
	<g
   display="inline"
   id="g8"
   style="display:inline">
		<g
   id="g6">
			<path
   stroke-miterlimit="10"
   d="m 422.468,408.894 c -0.053,0.053 0.008,0.092 0.121,0.124 -0.033,-0.113 -0.07,-0.173 -0.121,-0.124 z"
   id="path2"
   inkscape:connector-curvature="0"
   style="stroke:#a4a4a4;stroke-width:3;stroke-miterlimit:10" />
			<path
   stroke-miterlimit="10"
   d="m 717.083,449.214 2.697,0.062 v -3.324 l -2.697,0.1 0.039,-2.65 -2.547,-0.053 v -6.698 l -1.602,-0.12 -0.125,-1.852 -4.254,-0.987 0.162,-1.837 2.365,0.049 0.061,-1.234 1.604,-0.555 0.369,-1.544 1.482,-0.431 -1.174,-11.35 c 0,0 5.432,-6.354 5.244,-6.354 -0.186,0 -3.27,-3.946 -3.27,-3.946 l -3.023,2.468 -3.328,-6.458 h -2.963 l -2.135,-2.858 1.729,-1.911 0.184,-2.9 3.146,-0.432 -2.898,-0.861 2.898,-1.728 -3.762,-0.124 2.158,-2.529 -3.516,1.789 -0.309,-3.208 -1.48,3.022 -0.986,-0.062 -2.096,-1.727 1.045,3.022 -2.221,-0.307 v -2.248 l -0.529,-0.283 -0.213,-8.202 -1.387,-1.937 0.033,-0.407 2.527,-0.061 v -2.283 l -0.617,-0.803 -1.852,-0.123 -0.182,-0.668 2.033,-0.256 v -1.852 l -0.678,-1.072 -0.061,-0.901 -0.74,-0.861 1.057,-2.222 V 365.9 l -4.268,5.589 v 2.307 l 0.742,0.874 0.186,0.546 h -0.742 l -0.74,0.986 v 2.467 l 1.111,0.616 0.008,2.851 h 1.416 v 2.874 l -2.285,10.411 v 4.137 l 1.307,1.09 v 4.574 l 1.107,2.371 -1.107,6.121 v 2.396 h 1.258 l 0.215,1.146 -0.162,4.953 h 0.98 l 0.037,5.455 -1.018,3.908 v 11.43 l -2.127,-0.044 v 3.028 l -2.99,-0.035 0.664,3.656 2.523,-0.016 -2.854,5.336 c 0,0 -1.33,-9.643 -12.303,-15.625 -1.006,-0.55 -2.002,-1.005 -2.984,-1.418 -5,-6.148 -14.463,-5.008 -14.463,-5.008 v -4.924 l -1.982,0.608 c -0.588,-2.097 -1.664,-3.212 -2.615,-3.809 v -34.443 h -12.346 v 25.39 h -0.848 v 10.654 l -0.482,0.482 h -3.33 v -98.175 l -15.654,-0.194 v 79.064 c -1.545,0.207 -2.926,0.73 -4.059,1.32 v -71.88 l -11.5,-11.499 -13.816,11.319 0.176,61.756 c -2.072,-0.253 -3.9,0.044 -5.451,0.609 V 282.689 l -7.727,-0.092 -0.131,-1.597 6.031,0.047 1.83,-0.848 v -1.331 l -1.467,-1.198 -6.525,-0.133 -1.064,-45.141 -1.129,45.151 h -6.861 l -1.465,1.054 0.133,1.597 1.598,0.8 h 6.596 v 1.28 h -8.881 v 111.96 l -3.277,-2.81 -5.318,5.985 v 7.313 h -1.662 v 17.286 h -1.664 v 7.753 h -3.559 v -40.332 h -3.758 v -12.36 h -7.217 v 12.36 h -0.939 v 11.115 h -11.268 v 1.838 c -1.533,-0.02 -2.514,-0.035 -2.514,-0.035 v 0.62 h -0.984 V 394.8 H 525.6 v -3.851 h -14.246 v 18.875 h -5.201 v 15.185 h -2.59 v -2.752 h -4.402 v -1.813 h -2.072 v -2.589 h -2.59 v 7.154 h -1.764 V 411.71 l -3.656,-22.273 -3.66,22.273 v 12.635 l -1.258,0.314 v -40 h -19.053 v 8.071 h -2.729 v 16.164 h -0.844 l -1.381,-6.539 -1.775,6.539 h -4.809 c 0,-6.539 0,-14.87 0,-14.87 h -3.627 v 3.108 H 439.582 V 394.8 h -4.918 v 3.367 h -3.629 v -2.591 h -3.883 v 13.476 c -1.904,0.076 -4.035,0.118 -4.562,-0.034 0.295,1.03 -0.121,8.2 -0.121,8.2 h -2.871 v 8.789 h -2.33 v -13.964 l -2.658,-4.987 -2.66,5.983 v 9.976 h -1.971 v -36.69 H 396.29 v 5.886 h -1.518 v 12.614 H 389.85 V 387.03 h -8.729 V 372.724 H 370.02 v 7.056 h -10.734 v 27.942 h -1.024 v 11.471 l -1.006,1.007 v -87.706 h -2.035 v -14.43 h -2.034 v -6.104 h -2.036 v -2.405 h -2.22 v -3.33 l -1.85,0.371 v -1.665 l -1.109,-0.185 c 0,0 -0.103,-14.062 0,-16.649 0.113,-2.899 -2.929,-3.178 -2.929,-3.178 v -7.368 h -0.924 v 7.307 c -3.562,0.133 -3.733,2.869 -3.733,2.869 v 18.499 h -2.774 v 2.96 h -2.22 v 2.959 l -2.221,0.186 v 5.179 l -1.666,0.186 v 14.614 h -1.11 v 73.559 l -1.711,1.365 v 1.492 c -0.101,-0.002 -0.171,-0.004 -0.171,-0.004 v 4.213 h -2.405 V 371.493 H 312.77 v 44.553 h -0.487 l -5.321,-5.321 v -31.46 -4.663 h -3.367 v -3.108 h -8.864 v -20.926 h -7.861 v 43.196 h -7.341 v -36.495 h -9.534 v 55.667 h -2.404 v -3.367 l -3.911,0.188 v -4.69 h -0.233 v -3.008 h -3.627 v -2.59 h -1.163 V 374.79 h -13.142 v 22.606 h -2.577 V 374.79 h -11.794 v 18.72 h -3.703 v 7.682 l -1.329,-0.777 -1.663,1.945 v 3.039 l -1.661,0.334 v 16.598 h -2.611 v -52.596 l -1.122,-1.122 v -5.779 l -2.253,-2.252 v -13.237 l -3.161,-3.039 v -4.132 l -0.485,-0.608 v -3.402 l -0.852,-0.73 v -4.375 l -1.215,-0.242 v -4.375 l -0.485,-0.365 v -2.794 l -0.729,-0.609 v -2.551 l -0.971,-2.065 -0.03,-19.703 v 0.364 l -0.457,19.339 h -0.609 v 3.645 l -1.762,3.769 v 3.22 l -1.883,1.883 v 4.133 h -1.247 v 4.464 l -0.881,0.883 v 3.586 l -0.668,0.667 v 3.766 h -0.718 v 12.914 h -1.802 v 3.304 h -2.101 V 420.03 H 194.2 v -2.992 h -1.467 v -27.594 h -23.787 v 34.957 c -1.858,0.115 -3.669,0.104 -3.669,-0.382 0,0.235 0,2.411 0,5.241 l -1.037,1.035 v -17.356 h -6.734 v 18.06 h -3.367 V 408.53 h -15.801 v 30.706 h -4.015 v -15.815 h -15.588 v 11.187 30.018 l 607.371,-0.388 c 0.118,-11.973 -9.023,-15.024 -9.023,-15.024 z"
   id="path4"
   inkscape:connector-curvature="0"
   style="fill:none;stroke:#a4a4a4;stroke-width:3;stroke-miterlimit:10" />
		</g>
	</g>
</g>
<g
   id="Layer_2"
   transform="matrix(-1.6165717,0,0,1.6165717,1184.9564,-604.81902)"
   style="stroke:#f08578;stroke-opacity:1">
	<g
   id="g17"
   style="stroke:#2ab3a6;stroke-opacity:1">
		<g
   id="g15"
   style="stroke:#2ab3a6;stroke-opacity:1">
			
			<path
   stroke-miterlimit="10"
   d="m 727.354,615.955 c 0.006,-0.567 -0.009,-1.114 -0.043,-1.642 -0.685,-10.613 -8.98,-13.382 -8.98,-13.382 l 2.697,0.062 v -3.324 l -2.697,0.1 0.039,-2.65 -2.547,-0.053 v -6.697 l -1.602,-0.121 -0.125,-1.852 -4.254,-0.986 0.162,-1.838 2.365,0.049 0.061,-1.234 1.604,-0.555 0.369,-1.543 1.482,-0.432 -1.174,-11.35 c 0,0 5.432,-6.354 5.244,-6.354 -0.186,0 -3.27,-3.947 -3.27,-3.947 l -3.023,2.469 -3.328,-6.459 h -2.963 l -2.135,-2.857 1.729,-1.912 0.184,-2.9 3.146,-0.432 -2.898,-0.861 2.898,-1.727 -3.762,-0.125 2.158,-2.529 -3.516,1.789 -0.309,-3.207 -1.48,3.021 -0.986,-0.062 -2.096,-1.727 1.045,3.021 -2.221,-0.307 v -2.248 l -0.529,-0.283 -0.213,-8.201 -1.387,-1.938 0.033,-0.406 2.527,-0.061 v -2.283 l -0.617,-0.803 -1.852,-0.123 -0.182,-0.668 2.033,-0.256 v -1.854 l -0.678,-1.072 -0.061,-0.9 -0.74,-0.861 1.057,-2.223 v -1.604 l -4.268,5.588 v 2.309 l 0.742,0.873 0.186,0.545 h -0.742 l -0.74,0.986 v 2.467 l 1.111,0.617 0.008,2.85 h 1.416 v 2.875 l -2.285,10.41 v 4.137 l 1.307,1.09 v 4.574 l 1.107,2.371 -1.107,6.121 v 2.396 h 1.258 l 0.215,1.146 -0.162,4.953 h 0.98 l 0.037,5.455 -1.018,3.908 v 11.43 l -2.127,-0.043 v 3.027 l -2.99,-0.035 0.664,3.656 2.523,-0.016 -2.854,5.336 c 0,0 -1.33,-9.643 -12.303,-15.625 -1.006,-0.549 -2.002,-1.004 -2.984,-1.418 -5,-6.148 -14.463,-5.008 -14.463,-5.008 v -4.924 l -1.982,0.609 c -0.588,-2.098 -1.664,-3.213 -2.615,-3.809 v -34.443 h -12.346 v 25.389 h -0.848 v 10.654 l -0.482,0.482 h -3.33 v -98.17 l -15.654,-0.193 v 79.063 c -1.545,0.207 -2.926,0.73 -4.059,1.32 v -71.88 l -11.5,-11.5 -13.816,11.32 0.176,61.757 c -2.072,-0.254 -3.9,0.043 -5.451,0.609 V 434.408 l -7.727,-0.092 -0.135,-1.598 6.031,0.047 1.83,-0.848 v -1.33 l -1.467,-1.199 -6.525,-0.133 -1.064,-45.14 -1.129,45.152 h -6.861 l -1.465,1.055 0.133,1.596 1.598,0.801 h 6.596 v 1.279 h -8.881 v 111.961 l -3.277,-2.811 -5.318,5.986 v 7.312 H 560.8 v 17.287 h -1.664 v 7.752 h -3.559 v -40.332 h -3.758 v -12.359 h -7.217 v 12.359 h -0.939 v 11.115 h -11.268 v 1.838 c -1.533,-0.02 -2.514,-0.035 -2.514,-0.035 v 0.621 h -0.984 v -8.176 h -2.053 v -3.85 h -14.246 v 18.875 h -5.201 v 15.184 h -2.59 v -2.752 h -4.402 v -1.812 h -2.072 v -2.59 h -2.59 v 7.154 h -1.764 v -13.299 l -3.656,-22.273 -3.66,22.273 v 12.635 l -1.258,0.314 v -40 h -19.053 v 8.07 h -2.729 v 16.164 h -0.844 l -1.381,-6.539 -1.775,6.539 h -4.809 c 0,-6.539 0,-14.869 0,-14.869 h -3.627 v 3.107 h -10.361 v -2.332 h -4.918 v 3.367 h -3.629 v -2.59 h -3.883 v 13.475 c -1.904,0.076 -4.035,0.119 -4.562,-0.033 0.295,1.029 -0.121,8.199 -0.121,8.199 h -2.871 v 8.789 h -2.33 v -13.963 l -2.658,-4.988 -2.66,5.984 v 9.975 h -1.971 v -36.689 l -15.208,5.885 v 12.615 h -4.922 v -17.795 h -8.729 v -14.307 h -11.101 v 7.057 h -10.734 v 27.941 h -1.024 v 11.471 l -1.006,1.006 V 484.21 h -2.035 v -14.43 h -2.034 v -6.104 h -2.036 v -2.404 h -2.22 v -3.33 l -1.85,0.371 v -1.664 l -1.109,-0.186 c 0,0 -0.103,-14.062 0,-16.65 0.113,-2.898 -2.929,-3.178 -2.929,-3.178 v -7.367 h -0.924 v 7.307 c -3.562,0.133 -3.733,2.869 -3.733,2.869 v 18.498 h -2.774 v 2.961 h -2.22 v 2.959 l -2.221,0.186 v 5.179 l -1.666,0.186 v 14.613 h -1.11 v 73.56 l -1.711,1.365 v 1.492 c -0.101,-0.002 -0.171,-0.004 -0.171,-0.004 v 4.213 h -2.405 v -41.443 h -11.337 v 44.553 h -0.487 l -5.321,-5.32 v -31.461 -4.662 h -3.367 v -3.109 h -8.864 v -20.93 h -7.861 v 43.196 h -7.341 v -36.494 h -9.534 v 55.668 h -2.404 v -3.367 l -3.911,0.188 v -4.691 h -0.233 v -3.008 h -3.627 v -2.59 h -1.163 v -24.678 h -13.142 v 22.605 h -2.577 v -22.605 h -11.794 v 18.719 h -3.703 v 7.682 l -1.329,-0.777 -1.663,1.945 v 3.039 l -1.661,0.334 v 16.598 h -2.611 v -52.596 l -1.122,-1.121 v -5.779 l -2.253,-2.252 v -13.237 l -3.161,-3.039 v -4.133 L 214.4,491.28 v -3.402 l -0.852,-0.73 v -4.375 l -1.215,-0.24 v -4.377 l -0.485,-0.365 v -2.793 l -0.729,-0.609 v -2.551 l -0.971,-2.066 -0.03,-19.702 v 0.363 l -0.457,19.339 h -0.609 v 3.645 l -1.762,3.77 v 3.219 l -1.883,1.883 v 4.133 h -1.247 v 4.465 l -0.881,0.883 v 3.586 l -0.668,0.668 v 3.766 h -0.718 v 12.915 h -1.802 v 3.305 h -2.101 v 55.736 h -2.548 v -2.992 h -1.467 V 541.16 h -23.787 v 34.957 c -1.858,0.115 -3.669,0.104 -3.669,-0.381 0,0.234 0,2.41 0,5.24 l -1.037,1.035 V 564.65 h -6.734 v 18.059 h -3.367 V 560.248 H 139.58 v 30.707 h -4.015 v -15.816 h -15.588 v 11.188 28.318 1.699"
   id="path13"
   inkscape:connector-curvature="0"
   style="fill:none;stroke:#2ab3a6;stroke-width:2;stroke-miterlimit:10;stroke-opacity:1" />
		</g>
	</g>
</g>
</svg>