<?xml version="1.0" encoding="UTF-8" standalone="no"?>
<svg
   xmlns:dc="http://purl.org/dc/elements/1.1/"
   xmlns:cc="http://creativecommons.org/ns#"
   xmlns:rdf="http://www.w3.org/1999/02/22-rdf-syntax-ns#"
   xmlns:svg="http://www.w3.org/2000/svg"
   xmlns="http://www.w3.org/2000/svg"
   xmlns:sodipodi="http://sodipodi.sourceforge.net/DTD/sodipodi-0.dtd"
   xmlns:inkscape="http://www.inkscape.org/namespaces/inkscape"
   version="1.1"
   x="0px"
   y="0px"
   viewBox="0 0 48 60"
   enable-background="new 0 0 48 48"
   xml:space="preserve"
   id="svg8"
   sodipodi:docname="regression.svg"
   inkscape:version="0.92.4 (5da689c313, 2019-01-14)"><metadata
     id="metadata14"><rdf:RDF><cc:Work
         rdf:about=""><dc:format>image/svg+xml</dc:format><dc:type
           rdf:resource="http://purl.org/dc/dcmitype/StillImage" /><dc:title></dc:title></cc:Work></rdf:RDF></metadata><defs
     id="defs12" /><sodipodi:namedview
     pagecolor="#ffffff"
     bordercolor="#666666"
     borderopacity="1"
     objecttolerance="10"
     gridtolerance="10"
     guidetolerance="10"
     inkscape:pageopacity="0"
     inkscape:pageshadow="2"
     inkscape:window-width="2434"
     inkscape:window-height="1400"
     id="namedview10"
     showgrid="false"
     inkscape:zoom="3.9333333"
     inkscape:cx="-0.78813559"
     inkscape:cy="30"
     inkscape:window-x="114"
     inkscape:window-y="-12"
     inkscape:window-maximized="1"
     inkscape:current-layer="svg8" /><path
     d="m 39.675475,27.786644 c -1.746,0 -3.167,-1.421 -3.167,-3.167 0,-1.746 1.421,-3.167 3.167,-3.167 1.746,0 3.167,1.421 3.167,3.167 0,1.746 -1.421,3.167 -3.167,3.167 z m 0,-4.334 c -0.644,0 -1.167,0.523 -1.167,1.167 0,0.644 0.523,1.167 1.167,1.167 0.644,0 1.167,-0.523 1.167,-1.167 0,-0.644 -0.523,-1.167 -1.167,-1.167 z m -13,23.833 c -1.746,0 -3.167,-1.421 -3.167,-3.167 0,-1.746 1.421,-3.167 3.167,-3.167 1.746,0 3.167,1.421 3.167,3.167 0,1.746 -1.421,3.167 -3.167,3.167 z m 0,-4.334 c -0.644,0 -1.167,0.523 -1.167,1.167 0,0.644 0.523,1.167 1.167,1.167 0.644,0 1.167,-0.523 1.167,-1.167 0,-0.644 -0.523,-1.167 -1.167,-1.167 z m -8.668,-13 c -1.746,0 -3.167,-1.421 -3.167,-3.167 0,-1.746 1.421,-3.167 3.167,-3.167 1.746,0 3.167,1.421 3.167,3.167 0,1.746 -1.421,3.167 -3.167,3.167 z m 0,-4.334 c -0.644,0 -1.167,0.523 -1.167,1.167 0,0.644 0.523,1.167 1.167,1.167 0.644,0 1.167,-0.523 1.167,-1.167 0,-0.644 -0.523,-1.167 -1.167,-1.167 z m 13,-6.499 c -1.746,0 -3.167,-1.421 -3.167,-3.167 0,-1.746 1.421,-3.167 3.167,-3.167 1.746,0 3.167,1.421 3.167,3.167 0,1.746 -1.421,3.167 -3.167,3.167 z m 0,-4.334 c -0.644,0 -1.167,0.523 -1.167,1.167 0,0.644 0.523,1.167 1.167,1.167 0.644,0 1.167,-0.523 1.167,-1.167 0,-0.644 -0.523,-1.167 -1.167,-1.167 z m 2.167,19.501 c -1.746,0 -3.167,-1.421 -3.167,-3.167 0,-1.746 1.421,-3.167 3.167,-3.167 1.746,0 3.167,1.421 3.167,3.167 0,1.746 -1.421,3.167 -3.167,3.167 z m 0,-4.334 c -0.644,0 -1.167,0.523 -1.167,1.167 0,0.644 0.523,1.167 1.167,1.167 0.644,0 1.167,-0.523 1.167,-1.167 0,-0.644 -0.523,-1.167 -1.167,-1.167 z m -21.666,8.668 c -1.7460004,0 -3.1670004,-1.421 -3.1670004,-3.167 0,-1.746 1.421,-3.167 3.1670004,-3.167 1.746,0 3.167,1.421 3.167,3.167 0,1.746 -1.421,3.167 -3.167,3.167 z m 0,-4.334 c -0.644,0 -1.167,0.523 -1.167,1.167 0,0.644 0.523,1.167 1.167,1.167 0.644,0 1.167,-0.523 1.167,-1.167 0,-0.644 -0.523,-1.167 -1.167,-1.167 z m 6.499,15.167 c -1.746,0 -3.167,-1.421 -3.167,-3.167 0,-1.746 1.421,-3.167 3.167,-3.167 1.746,0 3.167,1.421 3.167,3.167 0,1.746 -1.421,3.167 -3.167,3.167 z m 0,-4.334 c -0.644,0 -1.167,0.523 -1.167,1.167 0,0.644 0.523,1.167 1.167,1.167 0.644,0 1.167,-0.523 1.167,-1.167 0,-0.644 -0.523,-1.167 -1.167,-1.167 z m -10.1260004,4.041 34.6680004,-34.668 c 0.391,-0.391 0.391,-1.023 0,-1.414 -0.391,-0.391 -1.023,-0.391 -1.414,0 l -34.6680004,34.668 c -0.391,0.391 -0.391,1.023 0,1.414 0.195,0.195 0.451,0.293 0.707,0.293 0.256,0 0.512,-0.098 0.707,-0.293 z"
     id="path2"
     inkscape:connector-curvature="0" /></svg>