<?xml version="1.0" encoding="UTF-8" standalone="no"?>
<!-- Created with Inkscape (http://www.inkscape.org/) -->

<svg
   xmlns:dc="http://purl.org/dc/elements/1.1/"
   xmlns:cc="http://creativecommons.org/ns#"
   xmlns:rdf="http://www.w3.org/1999/02/22-rdf-syntax-ns#"
   xmlns:svg="http://www.w3.org/2000/svg"
   xmlns="http://www.w3.org/2000/svg"
   xmlns:sodipodi="http://sodipodi.sourceforge.net/DTD/sodipodi-0.dtd"
   xmlns:inkscape="http://www.inkscape.org/namespaces/inkscape"
   width="400mm"
   height="200mm"
   viewBox="0 0 400 200"
   version="1.1"
   id="svg8"
   inkscape:version="0.92.4 (5da689c313, 2019-01-14)"
   sodipodi:docname="nyc skyline sketch.svg">
  <defs
     id="defs2" />
  <sodipodi:namedview
     id="base"
     pagecolor="#ffffff"
     bordercolor="#666666"
     borderopacity="1.0"
     inkscape:pageopacity="0.0"
     inkscape:pageshadow="2"
     inkscape:zoom="0.98994949"
     inkscape:cx="656.57409"
     inkscape:cy="491.70338"
     inkscape:document-units="mm"
     inkscape:current-layer="layer1"
     showgrid="false"
     inkscape:window-width="2434"
     inkscape:window-height="1400"
     inkscape:window-x="114"
     inkscape:window-y="-12"
     inkscape:window-maximized="1" />
  <metadata
     id="metadata5">
    <rdf:RDF>
      <cc:Work
         rdf:about="">
        <dc:format>image/svg+xml</dc:format>
        <dc:type
           rdf:resource="http://purl.org/dc/dcmitype/StillImage" />
        <dc:title></dc:title>
      </cc:Work>
    </rdf:RDF>
  </metadata>
  <g
     inkscape:label="Layer 1"
     inkscape:groupmode="layer"
     id="layer1"
     transform="translate(0,-97)">
    <path
       style="fill:none;fill-opacity:1;stroke-width:0.26458332;stroke:#ff8080;stroke-opacity:1"
       id="path24"
       d="m 12.456843,239.08806 c 2.529999,-0.31661 5.061416,-0.63147 7.590436,-0.95886 1.826351,-0.27266 3.670886,-0.3733 5.499999,-0.61812 0.171918,-0.009 0.343837,-0.0173 0.515755,-0.0259 0,0 -3.185426,2.34555 -3.185426,2.34555 v 0 c -0.164292,0.0128 -0.328585,0.0257 -0.492878,0.0385 -1.809343,0.20852 -3.630132,0.30824 -5.433934,0.56981 -2.558664,0.31663 -5.115844,0.63851 -7.6654542,1.02272 0,0 3.1715022,-2.37371 3.1715022,-2.37371 z"
       inkscape:connector-curvature="0" />
    <path
       style="fill:none;fill-opacity:1;stroke-width:0.26458332;stroke:#ff8080;stroke-opacity:1"
       id="path26"
       d="m 32.016676,240.96573 c 0.09396,2.10714 0.202538,4.21185 0.431276,6.30923 0.199477,2.06208 0.555284,4.10332 0.934402,6.13846 0.272601,1.18317 0.416658,2.3998 0.784487,3.55939 0,0 -3.477066,1.90665 -3.477066,1.90665 v 0 c -0.365467,-1.18203 -0.494951,-2.42023 -0.76644,-3.62496 -0.35918,-2.05048 -0.715886,-4.10348 -0.919112,-6.17668 -0.235032,-2.0844 -0.342797,-4.177 -0.490107,-6.26857 0,0 3.50256,-1.84352 3.50256,-1.84352 z"
       inkscape:connector-curvature="0" />
    <path
       style="fill:none;fill-opacity:1;stroke-width:0.26458332;stroke:#ff8080;stroke-opacity:1"
       id="path28"
       d="m 22.504908,243.82499 c -0.182373,-1.34219 -0.320273,-2.68926 -0.40987,-4.04071 -10e-4,-0.18509 -0.002,-0.37018 -0.0031,-0.55526 0,0 3.523138,-1.78991 3.523138,-1.78991 v 0 c -0.0053,0.17764 -0.01059,0.35528 -0.01589,0.53291 0.07328,1.33664 0.182286,2.67311 0.411049,3.99336 0,0 -3.505357,1.85961 -3.505357,1.85961 z"
       inkscape:connector-curvature="0" />
    <path
       style="fill:none;fill-opacity:1;stroke-width:0.26458332;stroke:#ff8080;stroke-opacity:1"
       id="path30"
       d="m 29.344337,243.78222 c -1.30972,0.28621 -2.612552,0.60492 -3.925503,0.87833 -0.755969,0.14051 -0.393229,0.0932 -1.086779,0.15268 0,0 3.177378,-2.3607 3.177378,-2.3607 v 0 c 0.660058,-0.0856 0.310933,-0.0308 1.046173,-0.1718 1.318178,-0.2797 2.631522,-0.58732 3.937785,-0.9171 0,0 -3.149054,2.41859 -3.149054,2.41859 z"
       inkscape:connector-curvature="0" />
    <path
       style="fill:none;fill-opacity:1;stroke-width:0.26458332;stroke:#ff8080;stroke-opacity:1"
       id="path32"
       d="m 25.336028,239.56036 c 0.184615,1.19879 0.364761,2.40533 0.627756,3.59021 0,0 -3.488024,1.87251 -3.488024,1.87251 v 0 c -0.255293,-1.19404 -0.407344,-2.41099 -0.644472,-3.60904 0,0 3.50474,-1.85368 3.50474,-1.85368 z"
       inkscape:connector-curvature="0" />
    <path
       style="fill:none;fill-opacity:1;stroke-width:0.26458332;stroke:#ff8080;stroke-opacity:1"
       id="path34"
       d="m 41.296425,256.10126 c 1.127901,0.20604 2.269104,0.32219 3.412271,0.39891 0.221964,-0.0123 0.532093,-0.002 0.744561,-0.10908 0.08891,-0.045 0.314701,-0.2414 0.226576,-0.19492 -1.069062,0.56378 -2.082099,1.23512 -3.175519,1.75008 -0.109029,0.0513 0.113975,-0.21343 0.154049,-0.32709 0.0457,-0.12963 0.06809,-0.26633 0.102132,-0.3995 0.163443,-1.23752 0.0098,-2.49822 -0.04972,-3.74057 -0.07688,-1.31814 -0.05839,-2.6395 -0.123616,-3.95777 -0.08499,-1.35247 -0.248822,-2.69765 -0.365345,-4.04759 -0.08077,-0.92908 -0.133233,-1.86019 -0.156824,-2.7924 -0.02725,-0.50219 0.04468,-1.00352 0.224457,-1.4728 0.783601,-2.05743 0.566444,-1.03235 4.081634,-3.01409 0.636569,-0.0942 1.281129,-0.10122 1.923254,-0.10207 0.800306,-0.01 1.592839,-0.17082 2.384433,-0.28033 0.856721,-0.13227 1.744395,-0.11877 2.563574,-0.42659 1.266992,-0.91334 -0.166933,0.13174 -3.035244,1.71224 -0.05614,0.0309 0.09935,-0.0873 0.125246,-0.14593 0.03679,-0.0833 0.04495,-0.17687 0.05719,-0.2671 0.02715,-0.20014 0.02222,-0.43621 0.02365,-0.63687 -0.03218,-0.58043 -0.0424,-1.15137 0.04722,-1.72634 0.05779,-0.46786 0.09336,-0.91261 0.443601,-1.25556 3.510867,-2.09474 2.760874,-2.03864 5.414555,-2.05181 0.666961,-0.024 1.339945,0.0571 2.001522,-0.0405 0.656138,-0.1137 1.320694,-0.16869 1.98551,-0.19545 0.778008,-0.0264 1.556653,-0.0195 2.334991,-0.0211 0.335782,-0.0692 0.688038,-0.0689 1.022471,-0.14413 0.273267,-0.0615 0.265396,-0.084 0.481955,-0.23144 -1.077302,0.6138 -2.1546,1.22761 -3.231899,1.84141 0.370737,-0.29514 0.373928,-0.78136 0.396378,-1.21752 0.05143,-0.53238 -0.06413,-1.05067 -0.148297,-1.57234 -0.139586,-0.5333 -0.262159,-1.06727 -0.330927,-1.61459 -0.04403,-0.53945 -0.174588,-1.06577 -0.247346,-1.60169 -0.106497,-0.60371 -0.04172,-1.19954 0.03162,-1.80124 0.08923,-0.78136 0.154622,-1.56532 0.07994,-2.34962 -0.124288,-0.89399 0.293732,-1.24962 0.999453,-1.69323 1.566457,-0.48881 2.845382,-1.90737 4.464759,-2.40802 0.396986,-0.12273 0.812805,-0.17398 1.216421,-0.27123 0.794219,-0.22147 1.612334,-0.25149 2.430357,-0.27965 0.76255,-0.0798 1.508705,0.18441 2.267527,0.13703 0.09557,-0.01 0.192161,-0.0124 0.286718,-0.0294 0.190521,-0.0343 0.431713,-0.11014 0.603306,-0.19852 0.09334,-0.0481 0.356468,-0.22181 0.264932,-0.17037 -3.169689,1.7811 -4.06586,2.62364 -2.998777,1.6475 0.333516,-0.61104 0.226068,-1.4029 0.184539,-2.07411 -0.127767,-1.27256 -0.195585,-2.54958 -0.302823,-3.82385 -0.152482,-1.4444 -0.425331,-2.87169 -0.659056,-4.30422 -0.172593,-1.06822 -0.335936,-2.14211 -0.622422,-3.18673 -0.0273,-0.13067 -0.09961,-0.401 -0.07514,-0.54734 0.28857,-1.72587 3.14072,-2.26066 4.800658,-2.65255 1.067705,-0.31046 2.125427,-0.66397 3.175736,-1.03201 1.501629,-0.54586 2.997046,-1.10838 4.509865,-1.62308 0.965525,-0.37976 1.983237,-0.66745 2.903826,-1.15597 0.178726,-0.0948 0.693576,-0.41688 0.517374,-0.31743 -0.977821,0.55193 -1.94835,1.11667 -2.922524,1.67501 0.718748,-0.40549 1.114393,-0.98525 1.331894,-1.76306 0.185708,-0.87137 0.394972,-1.7378 0.534365,-2.61816 0.191815,-1.40076 0.342242,-2.80755 0.498235,-4.21296 0.13467,-1.24314 0.170831,-2.49322 0.19027,-3.74249 0.0037,-0.87704 0.198752,-1.72993 0.362936,-2.5858 0.486135,-2.11815 1.649008,-1.79666 4.182304,-3.19509 0.649761,-0.0505 1.291724,-0.0786 1.936601,-0.17057 0.777772,-0.10943 1.564683,-0.12873 2.348852,-0.1441 0.845299,-0.013 1.683012,-0.15217 2.525628,-0.22175 0.731086,-0.0493 1.463884,-0.055 2.196288,-0.06 0.934365,-0.0241 1.861396,0.11185 2.79203,0.17902 0.79131,0.0768 1.57096,0.0942 2.35177,-0.0627 1.17169,-0.45803 4.19886,-1.64856 -3.21008,1.80278 -0.08225,0.0383 -0.04382,-0.17662 -0.07682,-0.26114 -0.158247,-0.40534 -0.404058,-0.78496 -0.600964,-1.17184 -0.538316,-0.99813 -0.925848,-2.07329 -1.269351,-3.15191 -0.324046,-1.11059 -0.483233,-2.25894 -0.668073,-3.39826 -0.327602,-1.731 -0.434478,-3.48826 -0.504251,-5.24498 -0.02,-1.54443 -0.07551,-3.08471 -0.180369,-4.62556 -0.09271,-1.24519 -0.12496,-2.49355 -0.140563,-3.74173 0.05267,-1.28347 0.155321,-2.56374 0.207365,-3.84747 0.105508,-1.33243 0.212084,-2.66385 0.268123,-3.99947 0.04551,-1.24925 0.04886,-2.49956 0.05164,-3.74949 0.0037,-1.2185 -5.29e-4,-2.43702 -0.0028,-3.65552 -0.0016,-1.03648 -0.0047,-2.07294 -0.0045,-3.10942 -0.0019,-0.85539 -0.0034,-1.71078 -0.0052,-2.56616 -0.0019,-0.69857 -0.0031,-1.39714 -0.0016,-2.09571 -0.04208,-0.72993 0.07805,-1.44966 0.155112,-2.17251 0.04056,-0.8389 0.167177,-1.66856 0.263014,-2.50195 0.03155,-0.70136 0.151461,-1.39064 0.259451,-2.0827 0.09199,-0.53254 0.08408,-1.07419 0.134916,-1.61032 0.05904,-0.31186 0.199271,-0.61736 0.486606,-0.78769 2.337134,-1.38541 2.672794,-1.9521 4.516454,-2.29367 0.89733,-0.20894 1.78584,-0.45484 2.66783,-0.72166 0.3311,-0.12635 0.54314,-0.19363 0.85308,-0.36474 0.13891,-0.0767 0.54146,-0.33078 0.40303,-0.25324 -5.15672,2.8884 -3.40353,2.06411 -2.25602,1.14494 0.67574,-0.5645 1.19987,-1.25803 1.66378,-1.9989 0.50136,-0.84263 0.96303,-1.70591 1.32958,-2.61571 0.4242,-1.0125 0.74446,-2.06217 1.0954,-3.10109 0.42262,-1.3273 0.80038,-2.66646 1.104,-4.02594 0.30129,-1.49209 0.63364,-2.97601 0.9826,-4.45759 0.33822,-1.39503 0.72542,-2.77965 1.15277,-4.15008 0.35487,-1.11841 0.66911,-2.24845 0.97899,-3.3799 0.32188,-1.05311 0.62817,-2.11074 0.92146,-3.17215 0.30168,-1.07965 0.56488,-2.168342 0.89344,-3.240705 0.27675,-0.912129 0.58152,-1.815968 0.82955,-2.73658 0.45098,-1.901755 -0.17002,-1.053581 3.8726,-2.26999 0.0542,-0.0163 0.15304,0.408695 0.24448,0.765575 0.25815,0.958093 0.34931,1.944877 0.46229,2.926747 0.15729,1.043176 0.19612,2.09751 0.292,3.146383 0.12077,1.08289 0.31686,2.15667 0.49444,3.23159 0.21425,1.19859 0.621,2.35271 1.02094,3.49955 0.44974,1.26064 0.93695,2.50715 1.38402,3.76883 0.50145,1.34376 1.05807,2.66649 1.58615,4.00011 0.37497,0.96008 0.79031,1.90424 1.22322,2.83957 0.37063,0.91548 0.7699,1.81655 1.17941,2.7153 0.40617,0.81914 0.83141,1.62214 1.19368,2.46127 0.21533,0.48296 0.43934,0.9366 0.49689,1.46665 0.0506,0.446 0.46076,0.68609 0.81821,0.89039 0.54949,0.22762 1.08362,0.49226 1.65025,0.67553 0.6954,0.15475 1.37418,0.31634 1.99342,0.67763 0.82594,0.6518 0.93301,1.74973 1.04765,2.72647 0.1051,1.21716 0.0879,2.44064 0.0848,3.66111 -0.0791,1.87266 -0.28953,3.73559 -0.40657,5.60602 -0.1238,2.25934 -0.14391,4.52247 -0.15766,6.78461 -0.0515,2.24834 0.0406,4.4938 0.1032,6.74051 0.0882,3.09067 0.13596,6.18264 0.0949,9.27437 -0.0955,4.53119 -0.25811,9.06049 -0.36572,13.59137 -0.10566,5.05452 -0.13344,10.11018 -0.16802,15.16554 -0.0221,5.93773 -0.12332,11.87536 -0.33841,17.80927 -0.17897,6.95494 -0.71927,13.89255 -1.14282,20.83523 -0.26541,5.14055 -0.1622,2.5357 -0.3047,7.81474 0,0 -3.19972,1.62063 -3.19972,1.62063 v 0 c 0.11212,-5.27989 0.0157,-2.67406 0.28333,-7.8177 0.38523,-6.93243 0.8997,-13.85918 1.09484,-20.80079 0.17593,-5.92144 0.28956,-11.84532 0.28435,-17.76961 5.3e-4,-5.0594 0.0398,-10.11864 0.17349,-15.17651 0.10093,-4.51207 0.17946,-9.02432 0.26529,-13.53661 0.0455,-3.08044 -0.0219,-6.16134 -0.12016,-9.24035 -0.0942,-2.24778 -0.18454,-4.49446 -0.12955,-6.74496 0.0147,-2.26853 0.0375,-4.53775 0.15066,-6.80393 0.10205,-1.85693 0.28824,-3.70619 0.37303,-5.56386 2e-5,-1.20568 0.0125,-2.41344 -0.0746,-3.61679 -0.0873,-0.83698 -0.12182,-1.86013 -0.8742,-2.38652 -0.62192,-0.31112 -1.30162,-0.41949 -1.96242,-0.62146 -0.57794,-0.21799 -1.14764,-0.46467 -1.69649,-0.74808 -0.45286,-0.29913 -0.91176,-0.64162 -1.01581,-1.20777 -0.0217,-0.49639 -0.218,-0.91226 -0.4162,-1.3641 -0.35168,-0.84148 -0.77928,-1.63907 -1.18195,-2.45777 -0.40224,-0.90004 -0.81507,-1.79427 -1.17855,-2.71117 -0.43774,-0.9427 -0.84785,-1.89906 -1.22383,-2.86799 -0.51246,-1.34431 -1.06353,-2.67352 -1.57976,-4.01625 -0.45253,-1.25993 -0.93636,-2.50796 -1.4014,-3.76298 -0.40421,-1.1683 -0.80767,-2.34648 -1.05069,-3.55997 -0.1792,-1.08228 -0.38402,-2.16194 -0.51257,-3.25144 -0.10988,-1.0446 -0.12308,-2.09876 -0.2863,-3.138665 -0.12538,-0.96293 -0.18371,-1.938608 -0.45194,-2.877675 -0.0293,-0.12204 -0.0519,-0.245884 -0.0879,-0.366119 -0.0281,-0.09403 -0.18585,-0.221028 -0.10415,-0.275425 1.09679,-0.730255 2.31826,-1.255969 3.44071,-1.946109 0.0465,-0.0286 -0.0966,-0.113269 -0.1416,-0.08234 -0.16482,0.113285 0.0363,0.498234 -0.16043,0.578145 -0.22695,0.934619 -0.55338,1.840497 -0.8276,2.761395 -0.3534,1.061586 -0.60742,2.147963 -0.89926,3.226093 -0.29344,1.06241 -0.59283,2.12334 -0.92514,3.17426 -0.31839,1.13545 -0.61934,2.27553 -0.98196,3.3982 -0.44427,1.35938 -0.826,2.74073 -1.17573,4.12708 -0.34808,1.47978 -0.69139,2.95904 -0.98491,4.45077 -0.28734,1.3725 -0.66372,2.71968 -1.07198,4.0608 -0.35573,1.03825 -0.64611,2.09871 -1.07839,3.10898 -0.33819,0.93774 -0.80043,1.81256 -1.29357,2.67749 -0.45298,0.77547 -0.95081,1.50534 -1.61358,2.12126 -1.70037,1.46294 -3.69516,2.62652 -5.80772,3.37224 -0.89149,0.2557 -1.78478,0.50777 -2.690834,0.70736 -0.125243,0.0338 -0.252629,0.0604 -0.375732,0.1013 -0.122438,0.0407 -0.469656,0.2104 -0.359674,0.14296 1.013132,-0.62123 2.05409,-1.19601 3.07344,-1.80698 0.16949,-0.10159 -0.38014,0.15173 -0.51186,0.29904 -0.047,0.0525 -0.0632,0.12602 -0.0948,0.18903 -0.12159,0.52478 -0.0336,1.08071 -0.14187,1.61122 -0.10113,0.69091 -0.26128,1.37211 -0.27797,2.07331 -0.0853,0.83358 -0.23687,1.65883 -0.26443,2.49766 -0.0627,0.7125 -0.20118,1.41796 -0.16688,2.13538 0.002,0.69908 2.7e-4,1.39818 -0.002,2.09726 -0.002,0.85711 -0.003,1.71423 -0.005,2.57134 2.6e-4,1.03766 -0.002,2.07529 -0.003,3.11294 -8e-4,1.2195 -0.002,2.43899 -5.3e-4,3.65849 -0.003,1.25505 -0.006,2.51029 -0.0474,3.76482 -0.0554,1.33559 -0.14747,2.66839 -0.27159,3.99942 -0.0444,1.27741 -0.129987,2.55186 -0.211346,3.82723 0.01617,1.24276 0.04067,2.48574 0.125113,3.72611 0.09918,1.54823 0.161603,3.09469 0.163283,4.64663 0.0639,1.73925 0.16652,3.47993 0.4914,5.1935 0.20182,1.11653 0.38115,2.23992 0.66696,3.33872 0.32775,1.05954 0.7024,2.11624 1.23815,3.09017 1.01783,1.91966 2.24521,3.36636 -2.730901,3.98244 -0.794557,0.0886 -1.586288,0.0442 -2.381414,-0.0282 -0.928548,-0.0717 -1.856333,-0.18119 -2.789317,-0.14047 -0.725633,0.007 -1.451909,0.0204 -2.175256,0.0831 -0.844047,0.0768 -1.685486,0.20176 -2.534798,0.1989 -0.779746,0.026 -1.559981,0.0645 -2.331948,0.18478 -0.633256,0.0807 -1.282954,0.0494 -1.899909,0.23041 1.056952,-0.62316 2.119863,-1.23632 3.170856,-1.86947 0.05646,-0.034 -0.127214,0.0384 -0.184742,0.0705 -0.299747,0.16766 -0.338196,0.52737 -0.449247,0.81877 -0.158004,0.84254 -0.389512,1.67248 -0.413022,2.53519 -0.02265,1.26193 -0.05678,2.52518 -0.187225,3.78141 -0.150177,1.40608 -0.336198,2.80778 -0.466817,4.2161 -0.129781,0.89052 -0.334955,1.7635 -0.519264,2.64354 -0.155588,0.84653 -0.469548,1.56918 -1.217546,2.05677 -1.451785,0.84583 -2.850735,1.79393 -4.368258,2.51521 -0.935013,0.44441 -1.930736,0.75119 -2.89959,1.10917 -1.521163,0.52973 -3.023489,1.11028 -4.541792,1.6478 -1.060066,0.35775 -2.117318,0.73245 -3.201204,1.01151 -0.16577,0.0459 -0.333225,0.086 -0.497311,0.13759 -0.15226,0.0479 -0.585457,0.24662 -0.45112,0.16045 1.008274,-0.64678 2.075799,-1.19816 3.082036,-1.8481 0.06517,-0.0421 -0.168336,-0.0358 -0.232603,0.008 -0.0827,0.0559 7.94e-4,0.43396 0.0021,0.44415 0.278742,1.06391 0.439696,2.15448 0.604946,3.24091 0.235704,1.44181 0.519886,2.87641 0.673098,4.33053 0.112212,1.27163 0.196985,2.54499 0.327864,3.81488 0.06973,0.76146 0.130886,1.55889 -0.04283,2.30937 -0.727157,1.5308 -0.07971,0.29427 -3.755877,2.42565 -0.376333,0.21819 -0.849469,0.2356 -1.270132,0.24904 -0.747612,-0.0473 -1.490332,-0.20363 -2.243043,-0.13228 -0.807471,0.0419 -1.607801,0.12957 -2.390878,0.34153 -0.204308,0.0455 -0.609711,0.13221 -0.8118,0.19177 -1.403516,0.41365 -3.757345,2.08028 1.987828,-1.34106 -0.235643,0.13001 -1.045183,0.52579 -1.165749,0.75195 -0.0163,0.0306 -0.01595,0.51098 -0.01609,0.52703 0.08938,0.81137 0.03848,1.61674 -0.0414,2.42845 -0.06626,0.57189 -0.16502,1.13457 -0.06752,1.71031 0.06373,0.53954 0.198866,1.0662 0.249608,1.60595 0.05625,0.54392 0.164899,1.07632 0.323064,1.60028 0.08268,0.54497 0.226729,1.08361 0.184303,1.63926 -0.01053,0.51517 -0.01249,1.05057 -0.25582,1.51869 -2.503805,1.49287 -2.909697,2.29463 -5.174967,2.35942 -0.776462,7.9e-4 -1.553371,0.002 -2.329018,0.0423 -0.661919,0.0445 -1.319425,0.12298 -1.977091,0.20891 -0.672026,0.0293 -1.344774,0.001 -2.017271,0.0106 -0.379921,0.005 -0.762794,0.004 -1.141426,0.0404 -1.420429,0.13693 -3.121332,1.58768 2.65956,-1.75422 -0.552728,0.1427 -0.529037,0.41777 -0.588457,0.93462 -0.09717,0.55841 -0.15249,1.10157 -0.08602,1.67059 0.0026,0.14227 0.0076,1.31264 -0.05124,1.35313 -2.648979,1.82187 -2.313847,1.68209 -3.806036,2.21965 -0.850249,0.19401 -1.720599,0.23947 -2.581751,0.36781 -0.805244,0.12383 -1.614641,0.26143 -2.432161,0.2496 -0.619125,0.013 -1.255618,0.0109 -1.847237,0.21594 1.058953,-0.62805 2.121699,-1.24975 3.176858,-1.88415 0.05156,-0.031 -0.114316,0.0408 -0.164934,0.0733 -0.245435,0.15761 -0.242083,0.45494 -0.336047,0.70149 -0.187417,0.42308 -0.340651,0.85808 -0.307811,1.33252 0.0092,0.93011 0.04002,1.86001 0.110096,2.78774 0.10645,1.35361 0.291674,2.69831 0.375666,4.05364 0.08401,1.3196 0.04214,2.64391 0.118039,3.96447 0.06103,1.26937 0.20956,2.5479 0.121459,3.81609 -0.0081,0.0494 -0.115856,0.80476 -0.18637,0.85754 -1.796222,1.34418 -2.724382,2.52814 -4.653036,2.45192 -1.151657,-0.0993 -2.298848,-0.23975 -3.440457,-0.422 0,0 3.24833,-2.27905 3.24833,-2.27905 z"
       inkscape:connector-curvature="0" />
    <path
       style="fill:none;fill-opacity:1;stroke-width:0.26458332;stroke:#ff8080;stroke-opacity:1"
       id="path36"
       d="m 131.59319,240.30616 c 1.01074,0.78654 2.18358,1.24783 3.36653,1.69805 1.20828,0.4599 2.47505,0.68469 3.75425,0.82697 0.78204,0.084 1.5554,0.12698 2.3303,-0.009 0.2713,-0.10055 0.54804,-0.17229 0.8029,-0.31303 0.0872,-0.0482 0.34045,-0.20723 0.2538,-0.158 -3.15648,1.79345 -4.10897,2.52228 -2.8596,1.58912 0.83989,-0.78269 1.13926,-1.92931 1.39256,-3.00978 0.39416,-1.68117 0.4949,-3.40651 0.56632,-5.12556 0.0281,-2.22026 -0.14199,-4.43476 -0.26948,-6.64947 -0.14188,-2.37519 -0.19083,-4.75246 -0.12631,-7.13062 0.0428,-2.21826 0.17328,-4.43188 0.4233,-6.63628 0.20803,-2.12719 0.59999,-4.22857 0.99782,-6.32653 0.40869,-1.81127 0.63272,-3.65412 0.86633,-5.49374 0.20991,-1.32828 0.37273,-2.66279 0.55393,-3.99505 0.15373,-1.16022 0.1799,-2.3305 0.30658,-3.49317 0.0796,-1.04723 0.31212,-2.07164 0.49927,-3.10234 0.14176,-0.73146 0.16672,-1.47715 0.29309,-2.21036 0.0804,-0.51183 0.12179,-1.01686 0.50223,-1.39757 2.99312,-1.80076 2.91066,-2.06736 5.37551,-2.26742 0.63394,0.0141 1.23709,-0.16818 1.86282,-0.23339 0.6752,-0.0675 1.35396,-0.0748 2.03184,-0.0823 0.61523,-0.0516 1.29994,0.14396 1.86119,-0.16432 -1.08573,0.61122 -2.16009,1.24307 -3.25718,1.83365 -0.0773,0.0416 0.13982,-0.11045 0.18999,-0.18253 0.0627,-0.0901 0.10398,-0.19413 0.14348,-0.29662 0.15366,-0.39864 0.19841,-0.823 0.25114,-1.243 0.18764,-1.56596 0.31393,-3.1384 0.47596,-4.70715 0.21128,-2.25807 0.43184,-4.51548 0.63793,-6.77408 0.25873,-3.00143 0.79936,-5.96833 1.35648,-8.92581 0.6883,-3.41301 1.22495,-6.85106 1.72692,-10.29537 0.44426,-3.07307 0.72647,-6.16249 0.8859,-9.26237 0.1053,-2.23211 0.10969,-4.46696 0.10779,-6.701 -0.0532,-1.60308 -0.063,-3.20708 -0.0872,-4.81073 0.002,-1.10687 0.0249,-2.21357 0.0369,-3.32037 0.0291,-0.56648 -0.0853,-1.16437 0.16267,-1.69259 1.2011,-0.66131 2.35447,-1.41791 3.6033,-1.98395 0.11543,-0.0523 0.21459,0.13499 0.31965,0.20588 0.50578,0.34125 0.9514,0.75297 1.41721,1.14491 0.7758,0.74888 1.67341,1.31517 2.59228,1.86629 0.85971,0.53191 1.79294,0.92361 2.70754,1.34707 0.74291,0.36609 1.53016,0.6052 2.34762,0.72414 0.89634,0.0753 0.9651,-0.25815 1.4917,0.65704 0.33712,0.66197 0.29064,1.37445 0.24393,2.0907 -0.11829,0.74023 -0.2285,1.48142 -0.34,2.22281 -0.21147,1.28236 -0.35873,2.57244 -0.50854,3.86288 -0.14351,1.41622 -0.34783,2.82496 -0.47472,4.24281 -0.16186,1.44858 -0.28363,2.89994 -0.3519,4.35584 -0.0564,1.68627 -0.0865,3.37391 -0.0404,5.06061 0.0835,2.06982 0.26453,4.13427 0.47111,6.19494 0.19711,1.92328 0.25191,3.85613 0.28789,5.7878 -0.0162,1.92682 0.0992,3.85003 0.17815,5.77428 0.075,1.99254 0.0916,3.98654 0.1007,5.98026 0.009,2.02573 0.005,4.0515 0.004,6.07725 -0.004,1.98999 0.001,3.97997 0.005,5.96995 -0.004,1.28141 -0.0365,2.57276 0.26648,3.82551 0.2347,0.85859 0.70709,1.22196 1.44456,1.6355 0.74763,0.32175 1.51303,0.59845 2.30307,0.79554 0.73998,0.21518 1.48355,0.40882 2.17501,0.75516 0.69834,0.36002 1.17249,0.90903 1.50069,1.61101 0.33586,0.98237 0.34313,2.03949 0.31739,3.06642 -0.10073,1.63438 -0.38404,3.2553 -0.67068,4.8661 -0.46142,2.23635 -0.96596,4.46393 -1.26756,6.72872 -0.0448,0.96708 -0.28144,2.44149 0.48574,3.22926 0.0887,0.0911 0.20497,0.15052 0.30745,0.22577 0.85915,0.36977 1.82241,0.3316 2.74037,0.3346 1.00643,-0.064 1.99575,-0.25218 2.993,-0.38866 1.02044,-0.12646 2.04911,-0.15978 3.07622,-0.17741 0.79635,-0.0265 1.56806,-0.0846 2.29433,0.28409 0.62971,0.36954 0.84072,1.00536 0.96302,1.68484 0.13511,0.99583 -0.0172,1.99744 -0.0855,2.99254 -0.0941,1.40816 0.0169,2.82014 0.0695,4.22813 0.002,1.63755 0.15659,3.26577 0.36188,4.88869 0.23603,1.7723 0.38116,3.55351 0.46395,5.33895 0.0516,1.24314 0.0579,2.48746 0.0603,3.73147 0.0926,1.06083 0.1371,2.11461 0.0983,3.17876 -0.0586,0.80431 -0.0672,1.6005 0.0278,2.40092 0.10921,0.52116 0.0676,1.03301 -0.007,1.55312 -0.1002,0.41641 -0.21252,0.83737 -0.36536,1.23848 -0.0995,0.31029 -0.088,0.19813 0.09,0.15493 0.21167,-0.0514 0.43326,-0.0469 0.64839,-0.0809 0.94156,-0.19348 1.89229,-0.34796 2.83499,-0.53717 1.49981,-0.25643 3.03182,-0.2586 4.54962,-0.28628 1.42243,-0.0623 2.87559,0.0968 4.26723,-0.25939 1.43387,-0.60794 1.02042,-0.45153 -2.58896,1.51692 -0.12613,0.0688 0.24807,-0.14876 0.35409,-0.24571 0.11704,-0.10703 0.22457,-0.2274 0.30966,-0.36125 0.2376,-0.37376 0.29017,-0.68209 0.41163,-1.10568 0.43509,-2.17217 0.50649,-4.40404 0.50955,-6.61369 -0.026,-2.8437 -0.26595,-5.67831 -0.5339,-8.50746 -0.45089,-3.56528 -0.68235,-7.15005 -0.96242,-10.73112 -0.26954,-4.19127 -0.61174,-8.37625 -1.1114,-12.54656 -0.33167,-2.87541 -0.76823,-5.73697 -1.16726,-8.60345 -0.29753,-2.04729 -0.61343,-4.09118 -0.80701,-6.15139 -0.20085,-1.78936 -0.32412,-3.58513 -0.4011,-5.38364 -0.0194,-1.19874 -0.1561,-2.39086 -0.25635,-3.58444 -0.0569,-0.69215 -0.10825,-1.38052 0.0427,-2.06257 0.79025,-1.93762 3.207,-2.78188 5.19099,-3.13056 1.27332,-0.18057 2.56194,-0.12626 3.84268,-0.19175 1.57353,-0.0865 3.14949,-0.12888 4.70837,-0.37374 0.50156,-0.0863 1.01505,-0.18226 1.49678,-0.35326 0.28891,-0.10256 0.35983,-0.1664 0.60995,-0.32552 -1.06415,0.6059 -2.1283,1.21179 -3.19245,1.81768 0.45941,-0.51795 0.35247,-1.32677 0.35697,-1.97318 -0.005,-1.4306 -0.14106,-2.85831 -0.2724,-4.28195 -0.16475,-2.13552 -0.36174,-4.26861 -0.58298,-6.39903 -0.32454,-2.79456 -0.66014,-5.5875 -0.99563,-8.38078 -0.36794,-2.90001 -0.77404,-5.79441 -1.04657,-8.70539 -0.21875,-2.91417 -0.40337,-5.83062 -0.55593,-8.74895 -0.21258,-2.98845 -0.38581,-5.9787 -0.48612,-8.97303 -0.0713,-2.33994 -0.0739,-4.6811 -0.0778,-7.02188 -0.035,-1.97991 0.009,-3.95627 0.10632,-5.93349 0.0223,-1.39299 0.23288,-2.7683 0.43336,-4.14326 0.12541,-0.90438 0.32253,-1.77575 0.81186,-2.55313 1.46651,-1.7235 3.7381,-2.63184 5.84222,-3.38746 1.32724,-0.38956 2.69315,-0.61397 4.05294,-0.85429 1.82325,-0.27893 3.58169,-0.81121 5.32608,-1.39409 1.3436,-0.50858 2.69342,-0.99527 4.06748,-1.41574 0.72888,-0.24198 1.32162,-0.64814 2.06322,-0.26318 0.61256,0.64033 0.7353,1.55902 0.89644,2.39703 0.17963,1.29551 0.25772,2.60215 0.38179,3.90353 0.15456,1.65808 0.32158,3.315 0.5011,4.97059 0.1909,1.85093 0.32899,3.70772 0.46108,5.56383 0.16257,1.9283 0.35647,3.85388 0.50964,5.78292 0.2101,2.36432 0.33501,4.7338 0.4093,7.10588 0.045,2.34721 0.0603,4.69382 0.1262,7.04059 0.0847,2.75138 0.12767,5.50307 0.24649,8.25324 0.10557,2.70488 0.27831,5.40684 0.45821,8.10768 0.24106,3.23445 0.34335,6.47661 0.57928,9.71116 0.23239,3.05418 0.5646,6.09894 0.83588,9.14989 0.22953,2.99252 0.57261,5.97452 0.86066,8.96161 0.29148,2.89155 0.57421,5.78406 0.84452,8.67767 0.30057,2.74995 0.5534,5.50538 0.86984,8.2536 0.29253,2.63284 0.60506,5.26339 0.83958,7.9022 0.25102,2.2529 0.39398,4.5151 0.56512,6.77486 0.11982,1.8928 0.30728,3.78075 0.58135,5.65741 0.21281,1.3757 0.43071,2.75456 0.85011,4.08441 0.34937,1.14454 0.99332,1.85119 1.98168,2.48019 1.48127,0.67783 3.1735,0.69166 4.77522,0.76116 1.79332,0.0687 3.58503,0.0486 5.37624,-0.0492 1.5521,-0.076 3.09861,-0.2603 4.62356,-0.55816 0.52865,-0.16907 1.09138,-0.25824 1.60341,-0.48012 0.14877,-0.0645 0.56948,-0.3102 0.42866,-0.22986 -3.23856,1.84761 -3.93878,2.40273 -2.66613,1.43929 0.78131,-0.6838 0.94759,-1.64961 1.05839,-2.62977 0.1829,-1.66288 -0.0289,-3.31539 -0.2831,-4.95695 -0.40258,-2.22238 -0.88129,-4.43293 -1.44958,-6.61885 -0.66834,-2.23752 -1.15465,-4.52125 -1.662,-6.79878 -0.491,-2.18291 -1.02896,-4.35431 -1.53404,-6.53395 -0.44389,-1.94351 -0.92334,-3.87841 -1.38437,-5.81776 -0.32215,-1.34916 -0.71991,-2.68197 -1.20739,-3.98068 -0.26668,-0.7476 -0.56909,-1.49325 -0.74883,-2.26806 -0.0553,-0.35183 -0.0664,-0.85862 0.29822,-1.0717 1.20758,-0.70568 2.43567,-1.37568 3.6535,-2.06351 0.79664,-0.14983 1.61472,-0.13068 2.42215,-0.13706 1.14018,-0.005 2.28038,-1.5e-4 3.42056,0.004 1.26997,0.004 2.53995,0.003 3.80993,0.002 0.51771,0.0187 1.03841,-0.0266 1.55593,-0.004 0.38873,0.0173 0.76145,0.0918 1.15126,0.0907 0.26011,-0.0208 0.15965,0.03 0.31924,-0.10992 -1.09566,0.60234 -2.15611,1.27372 -3.28697,1.80701 -0.09,0.0425 0.0546,-0.19184 0.0703,-0.29009 0.0351,-0.21884 0.0335,-0.46708 0.0388,-0.68735 0.0225,-0.87101 -0.0666,-1.73612 -0.14934,-2.60165 -0.11511,-1.03226 -0.32592,-2.04961 -0.61973,-3.04507 -0.33947,-1.07143 -0.74777,-2.11738 -1.13917,-3.17013 -0.53752,-1.41037 -1.10267,-2.80985 -1.66504,-4.21037 -0.45048,-1.06443 -0.84608,-2.15119 -1.22138,-3.24405 -0.3718,-1.05366 -0.72286,-2.11468 -1.06981,-3.17683 -0.30001,-0.9675 -0.49415,-1.96305 -0.73962,-2.94462 -0.22709,-0.68234 -0.24077,-1.32085 0.14528,-1.93559 1.88258,-2.06356 3.73346,-2.36687 6.0609,-2.79808 1.74961,-0.26083 3.49467,-0.54758 5.24245,-0.82135 1.2387,-0.17288 2.47952,-0.38903 3.73238,-0.292 0.84447,0.1695 1.04087,0.9861 1.18213,1.72398 0.15854,1.41164 0.12292,2.83798 0.12208,4.25636 -0.0408,1.85544 0.0217,3.70738 0.10631,5.56038 0.0816,1.75963 0.19219,3.52142 0.43322,5.26707 0.28919,1.41483 0.57815,2.34521 1.80774,3.16646 0.99465,0.4587 2.12125,0.55214 3.20075,0.66081 1.32797,0.15084 2.65565,0.0791 3.98163,-0.0423 1.88333,-0.251 3.77333,-0.4453 5.6537,-0.71854 1.55247,-0.27078 3.12769,-0.32003 4.69257,-0.46698 1.29423,-0.0984 2.58352,5.2e-4 3.87175,0.11895 0.90969,0.10331 1.70045,0.47825 2.32979,1.13572 0.68432,0.92534 0.98745,2.04431 1.31347,3.12989 0.49649,1.67788 0.82148,3.40168 1.20452,5.10809 0.54485,2.68142 0.99732,5.37854 1.35472,8.09102 0.33827,2.82737 0.77374,5.64134 1.18829,8.45815 0.32917,2.47231 0.87694,4.90553 1.36192,7.34948 0.42725,2.11956 0.73959,4.26017 1.04725,6.39973 0.23495,1.70084 0.5212,3.3933 0.82071,5.0837 0.17883,1.22276 0.5897,2.35159 1.26725,3.38079 0.70654,0.96884 1.76334,1.33431 2.89253,1.55521 1.67605,0.22886 3.37277,0.17256 5.05912,0.24216 2.29399,0.11451 4.59021,0.16507 6.8866,0.19521 1.95332,0.0446 3.91883,0.0506 5.83616,-0.36171 0.21862,-0.0702 0.44738,-0.11448 0.65585,-0.21072 0.20198,-0.0933 0.76652,-0.45001 0.56612,-0.35343 -0.96469,0.4649 -1.84594,1.12098 -2.86184,1.45975 -0.23674,0.079 0.28443,-0.41248 0.39394,-0.63675 0.29078,-0.59551 0.34222,-0.98485 0.49406,-1.63077 0.3566,-2.52944 -0.003,-5.08034 -0.25678,-7.60117 -0.52459,-4.55259 -1.16909,-9.08867 -1.68733,-13.6423 -0.38369,-3.62115 -0.66746,-7.25159 -0.99983,-10.87751 -0.3044,-2.89842 -0.64873,-5.79359 -1.09627,-8.67365 -0.36542,-2.30499 -0.81209,-4.59391 -1.26379,-6.88294 -0.35131,-1.74942 -0.6318,-3.51339 -0.88122,-5.28011 -0.15076,-1.03021 -0.0808,-2.00761 0.32861,-2.96343 0.22498,-0.3971 0.503,-0.78428 0.90639,-1.02104 3.014,-1.76907 2.94222,-1.91009 5.18771,-2.6352 2.0519,-0.62154 4.1493,-1.07088 6.23612,-1.55635 2.05537,-0.43744 4.10388,-0.94988 6.20549,-1.09605 1.24473,0.0197 2.07809,0.0125 2.98653,0.93437 0.66583,1.04447 0.63387,2.32039 0.66699,3.51527 -0.006,2.07369 0.0143,4.14455 0.13774,6.21497 0.1591,2.84984 0.38127,5.69608 0.59161,8.5426 0.23321,2.86436 0.58722,5.71776 1.01278,8.55946 0.26392,1.59129 0.44722,3.21722 1.02552,4.73253 0.56039,1.17047 1.21489,1.17569 2.41922,1.36876 1.97485,0.27407 3.96274,0.0453 5.93788,-0.0954 1.87497,-0.1254 3.73671,-0.3778 5.61856,-0.28586 1.26831,0.17486 1.82788,0.31641 2.48904,1.43829 0.54539,1.12066 0.45876,2.35674 0.41553,3.56512 -0.0952,2.39159 -0.24643,4.78117 -0.40801,7.16923 -0.14915,2.03382 -0.23961,4.06852 -0.18013,6.10707 0.0806,1.29819 0.27096,2.64986 0.96086,3.78191 0.11163,0.18316 0.24948,0.34898 0.3742,0.52348 1.11263,1.19742 2.72822,1.48955 4.27154,1.73154 2.4548,0.37783 4.9417,0.4187 7.41077,0.65623 2.21543,0.16077 4.40436,0.51199 6.57182,0.98722 0.2725,0.02 1.32131,0.4807 1.60438,0.37703 0.11618,-0.0426 0.35793,-0.33189 0.24699,-0.27711 -1.06103,0.52387 -2.02332,1.24846 -3.11909,1.69516 -0.17153,0.0699 0.14425,-0.34123 0.21637,-0.51185 0.43517,-1.83541 0.25239,-3.73857 0.10957,-5.59821 -0.42537,-3.92136 -1.27072,-7.78189 -2.03639,-11.64687 -0.63521,-3.54587 -1.29794,-7.08937 -1.79568,-10.6581 -0.19611,-1.40616 -0.49588,-3.99311 -0.66532,-5.42147 -0.43124,-3.7863 -0.7316,-7.58531 -1.06812,-11.38067 -0.1469,-1.96605 -0.27631,-3.93993 -0.29581,-5.91234 0.25287,-1.64863 0.0401,-0.86067 3.60876,-2.3953 0.14931,-0.0642 0.19595,0.26074 0.27393,0.40333 0.28593,0.52288 0.47296,1.13771 0.69088,1.68982 0.67421,1.71889 1.47915,3.37307 2.4839,4.92237 0.63688,0.8775 1.28847,1.87095 2.36747,2.21634 -0.23522,0.39866 0.967,-0.42056 0.73848,-0.29761 -1.06053,0.5707 -2.0723,1.23204 -3.15024,1.76913 -0.11901,0.0593 0.17005,-0.20555 0.23958,-0.31888 0.088,-0.14349 0.1542,-0.29926 0.2313,-0.44889 0.71128,-1.58545 1.01812,-3.30856 1.30911,-5.01015 0.36891,-2.17582 0.62232,-4.37027 0.82277,-6.56748 0.17434,-1.96358 0.27784,-3.93244 0.42992,-5.89749 0.15362,-1.07353 0.0619,-2.29302 0.62008,-3.26349 1.21777,-0.64309 2.37853,-1.40828 3.65331,-1.92928 0.34076,-0.13927 1.10924,2.41136 1.16859,2.606 0.58965,2.08254 1.06931,4.19598 1.58615,6.29786 0.69398,2.83165 1.5335,5.62604 2.51812,8.36976 0.89453,2.47599 1.98742,4.87185 3.05041,7.27824 0.74864,1.64932 1.38456,3.35023 2.15958,4.98729 0.30964,0.67389 0.59785,1.35974 1.05471,1.94977 0.37089,0.40535 0.64301,0.87655 0.9443,1.33428 0.57814,0.75927 0.98313,1.61902 1.34088,2.49792 0.67947,1.58841 0.89834,3.31973 1.21398,5.00504 0.42249,2.26462 0.66255,4.55958 0.70803,6.86203 0.0355,1.76481 -0.21431,3.51363 -0.43439,5.25934 -0.0509,0.80398 -0.31885,1.86098 0.15242,2.6072 0.0918,0.14539 0.23022,0.25548 0.34531,0.38322 0.21064,0.1377 0.4077,0.29878 0.63185,0.41309 0.71665,0.3654 1.5811,0.61557 2.34823,0.8078 1.85584,0.46504 3.74245,0.69491 5.63743,0.92776 2.47337,0.13855 4.9975,0.46888 7.4659,0.10363 1.42629,-0.44056 1.84037,-0.60661 -2.51261,1.52086 -0.15587,0.0762 0.26641,-0.23011 0.35872,-0.37695 0.13391,-0.21294 0.22754,-0.45028 0.31065,-0.68768 0.23032,-0.65787 0.29882,-1.20894 0.42201,-1.8959 0.30866,-2.39284 0.32522,-4.81105 0.33562,-7.22001 0.067,-1.30066 -0.13988,-2.59026 -0.19748,-3.88524 1.22761,-0.73191 2.39133,-1.58361 3.68284,-2.19571 0.18785,-0.089 0.40214,0.10577 0.60132,0.16527 0.23799,0.0711 0.47331,0.15095 0.70998,0.2264 1.05997,0.33795 2.12558,0.63696 3.19955,0.92731 2.44607,0.72124 4.98637,0.7562 7.51298,0.77797 1.27439,-0.001 2.55182,-0.0199 3.82558,0.0366 0.29472,0.0131 0.59145,0.0167 0.88281,0.063 0.59777,0.095 0.73377,0.20188 1.24426,0.44851 0.87989,0.57687 1.01986,1.58323 1.15109,2.55033 0.0827,1.68227 0.23792,3.35492 0.44903,5.02599 0.24961,2.04371 0.73792,4.04447 1.32421,6.01473 0.17412,0.5927 0.3765,1.17641 0.57245,1.76207 0,0 -3.46337,1.90425 -3.46337,1.90425 v 0 c -0.18819,-0.59464 -0.38893,-1.18552 -0.55107,-1.78809 -0.56658,-1.99651 -1.05849,-4.02026 -1.3335,-6.07961 -0.20886,-1.66239 -0.42503,-3.32368 -0.49662,-4.99892 -0.10335,-0.82384 -0.16801,-1.73858 -0.94454,-2.20794 -0.16044,-0.0686 -0.31459,-0.15437 -0.4813,-0.2059 -0.54407,-0.16816 -0.93001,-0.17954 -1.50961,-0.2082 -1.26286,-0.0625 -2.52905,-0.0536 -3.79283,-0.0514 -2.55561,-0.0195 -5.1227,-0.10204 -7.5906,-0.84417 -1.08411,-0.29183 -2.16088,-0.60712 -3.24303,-0.90543 -0.23145,-0.0638 -0.46074,-0.1402 -0.69773,-0.17872 -0.1724,-0.028 -0.65857,0.0912 -0.52366,-0.0198 0.93358,-0.76787 2.00591,-1.3495 3.00886,-2.02426 -0.0406,1.30613 0.25263,2.614 0.13547,3.92417 -0.0323,2.42632 -0.0629,4.85735 -0.30668,7.2736 -0.14057,0.91357 -0.2554,1.86255 -0.61203,2.72539 -0.7134,1.72592 -2.86015,2.45521 -4.62688,2.77869 -2.46538,0.22782 -4.95458,-0.0692 -7.41209,-0.25962 -1.91799,-0.24641 -3.83794,-0.47671 -5.71807,-0.94561 -0.82375,-0.20544 -1.71317,-0.46385 -2.47102,-0.87068 -0.25183,-0.1352 -0.47037,-0.32492 -0.70556,-0.48738 -0.14137,-0.16527 -0.30771,-0.31211 -0.42413,-0.49581 -0.51091,-0.80618 -0.30371,-1.91816 -0.21802,-2.79591 0.22884,-1.73383 0.50152,-3.46888 0.48615,-5.22331 -0.0154,-2.28413 -0.24437,-4.56312 -0.6617,-6.80944 -0.31988,-1.65214 -0.57248,-3.34426 -1.23817,-4.90164 -0.3539,-0.85151 -0.74226,-1.69015 -1.31223,-2.42288 -0.30466,-0.44648 -0.59676,-0.89687 -0.94686,-1.30886 -0.45529,-0.62677 -0.76478,-1.32805 -1.06225,-2.04041 -0.75366,-1.65292 -1.35964,-3.37007 -2.10603,-5.0268 -1.05847,-2.41929 -2.1677,-4.81997 -3.0431,-7.31397 -0.97777,-2.75786 -1.85629,-5.55141 -2.5454,-8.39649 -0.54237,-2.08309 -1.02936,-4.18198 -1.63497,-6.24753 -0.18865,-0.59519 -0.36179,-1.21039 -0.63193,-1.77607 -0.0507,-0.10621 -0.10065,-0.21579 -0.1764,-0.30588 -0.0358,-0.0426 -0.1937,-0.0485 -0.14705,-0.0788 1.05886,-0.68851 2.16932,-1.29425 3.254,-1.94137 -0.069,0.0422 -0.15404,0.0654 -0.2068,0.12658 -0.47275,0.54851 -0.46042,2.23528 -0.58393,2.92458 -0.17359,1.96695 -0.26757,3.94079 -0.44315,5.90777 -0.20167,2.20689 -0.4549,4.41081 -0.81899,6.59727 -0.27477,1.71798 -0.54901,3.45603 -1.20441,5.07833 -0.007,0.0163 -0.3369,0.83614 -0.40098,0.88063 -0.89519,0.62137 -2.88954,2.6986 -4.55726,2.26783 -1.08307,-0.50919 -1.78864,-1.48698 -2.4442,-2.45703 -1.00129,-1.57707 -1.83935,-3.24277 -2.54105,-4.97448 -0.2608,-0.63463 -0.24591,-0.61189 -0.50959,-1.20564 -0.6976,-1.57091 -1.03259,-0.16482 3.01741,-2.45638 0.0843,-0.0477 -0.0867,0.17315 -0.13007,0.25973 -0.0774,1.97125 0.11663,3.95242 0.19709,5.9204 0.29435,3.81085 0.57261,7.62373 0.95221,11.42721 0.20725,1.82767 0.39582,3.59145 0.64992,5.41448 0.49615,3.55939 1.15822,7.09349 1.82039,10.62475 0.79362,3.86125 1.66037,7.71632 2.16194,11.62941 0.18126,1.89455 0.37065,3.8164 0.0233,5.70467 -0.46588,1.99359 -0.0169,0.71919 -3.76111,2.98721 -0.11557,0.07 -0.26458,0.071 -0.39968,0.0679 -0.54022,-0.0123 -1.04502,-0.36879 -1.57556,-0.42445 -2.14633,-0.48719 -4.32078,-0.79907 -6.51621,-0.96601 -2.47865,-0.22368 -4.97269,-0.29636 -7.4358,-0.67124 -1.64619,-0.27852 -3.33748,-0.64345 -4.47728,-1.96968 -0.13237,-0.19084 -0.27813,-0.37307 -0.39714,-0.57252 -0.708,-1.18637 -0.93911,-2.58783 -1.0264,-3.94514 -0.0669,-2.05667 0.0327,-4.10782 0.19659,-6.15894 0.16661,-2.37569 0.31258,-4.75375 0.37597,-7.13455 0.0188,-1.12733 0.13899,-2.29477 -0.34938,-3.34901 -0.13563,-0.22654 -0.2231,-0.41979 -0.42929,-0.59182 -0.49659,-0.41429 -1.21309,-0.45476 -1.82062,-0.53344 -1.86,-0.0584 -3.7029,0.18009 -5.55683,0.29485 -2.00594,0.14351 -4.02715,0.35772 -6.02899,0.0426 -1.30421,-0.24957 -2.08031,-0.42368 -2.65266,-1.70422 -0.57927,-1.55413 -0.74922,-3.21512 -0.9925,-4.84666 -0.40137,-2.85436 -0.78002,-5.71475 -1.01764,-8.58798 -0.20553,-2.84501 -0.41521,-5.68965 -0.61508,-8.53502 -0.13515,-2.06709 -0.18002,-4.13528 -0.18177,-6.20656 -0.0349,-1.0803 0.0225,-2.27384 -0.55234,-3.23108 -0.78727,-0.72363 -1.74239,-0.69902 -2.76365,-0.68009 -2.07484,0.18769 -4.10475,0.66781 -6.13545,1.11716 -2.09516,0.49664 -4.20648,0.94294 -6.25441,1.61669 -0.2295,0.0803 -0.46125,0.15446 -0.6885,0.24094 -0.20314,0.0773 -0.78541,0.36716 -0.60216,0.25024 0.94485,-0.60289 1.93207,-1.13677 2.89375,-1.71244 0.13462,-0.0806 -0.28409,0.13656 -0.41225,0.22702 -0.25345,0.1789 -0.37764,0.36205 -0.56944,0.5968 -0.48945,0.90617 -0.57346,1.7473 -0.46021,2.77186 0.22672,1.76603 0.49485,3.52891 0.84198,5.27537 0.43849,2.29981 0.88606,4.59699 1.24113,6.91191 0.44297,2.8917 0.78455,5.79771 1.0849,8.70745 0.31663,3.63232 0.58166,7.26915 0.94443,10.89744 0.48797,4.55224 1.09334,9.08671 1.73046,13.6203 0.29921,2.54356 0.67172,5.11115 0.387,7.67454 -0.0893,0.4564 -0.40312,2.14887 -0.78613,2.44648 -1.54842,1.20318 -3.18346,2.51299 -5.11783,2.99518 -1.93543,0.32507 -3.89451,0.33064 -5.85253,0.27502 -2.30177,-0.0355 -4.60299,-0.0941 -6.90298,-0.19342 -1.71109,-0.0499 -3.43763,0.008 -5.13168,-0.27642 -1.21237,-0.28721 -2.31862,-0.75796 -3.06384,-1.81004 -0.70075,-1.07862 -1.14898,-2.2498 -1.32972,-3.52961 -0.28885,-1.69928 -0.57198,-3.39907 -0.80261,-5.10754 -0.29359,-2.13659 -0.60527,-4.27241 -1.02328,-6.38868 -0.4753,-2.45411 -1.02394,-4.89553 -1.35154,-7.37627 -0.40945,-2.82036 -0.83924,-5.63805 -1.18301,-8.46746 -0.35086,-2.69699 -0.79737,-5.37991 -1.37819,-8.03766 -0.38843,-1.69262 -0.72347,-3.40215 -1.22288,-5.06617 -0.31297,-1.01916 -0.58766,-2.08224 -1.23901,-2.94812 -0.60307,-0.56754 -1.34073,-0.84568 -2.16607,-0.91625 -1.27008,-0.11922 -2.54352,-0.17974 -3.81772,-0.0712 -1.55726,0.12253 -3.11761,0.21697 -4.66146,0.47027 -1.88889,0.25829 -3.78375,0.46941 -5.67505,0.70897 -1.34797,0.11444 -2.69761,0.16004 -4.04468,-0.007 -1.13313,-0.13041 -2.31564,-0.2388 -3.31941,-0.82388 -1.29053,-0.96861 -1.61174,-1.90444 -1.94083,-3.45916 -0.25167,-1.75723 -0.35769,-3.53238 -0.44021,-5.30472 -0.0872,-1.85698 -0.16097,-3.71261 -0.12105,-5.57231 -0.006,-1.39094 0.013,-2.78767 -0.13036,-4.17285 -0.10292,-0.59867 -0.18528,-1.23178 -0.90852,-1.27324 -1.2205,-0.051 -2.43057,0.1648 -3.6363,0.32655 -1.75422,0.27325 -3.50626,0.55851 -5.25775,0.84838 -0.32322,0.0621 -0.89381,0.16699 -1.22324,0.24765 -0.16489,0.0404 -0.32946,0.0834 -0.49031,0.13769 -0.12958,0.0437 -0.49596,0.22754 -0.37951,0.15583 0.93568,-0.57619 4.29239,-2.55448 2.84078,-1.67253 -0.51305,0.44022 -0.53115,0.97934 -0.32397,1.60468 0.24439,0.97359 0.41916,1.96553 0.71431,2.92654 0.34749,1.05998 0.69494,2.12019 1.06765,3.17152 0.37326,1.08784 0.76176,2.17116 1.20189,3.23403 0.54918,1.40791 1.10524,2.81277 1.67137,4.21412 0.40454,1.05695 0.81468,2.11067 1.16268,3.18819 0.31086,1.01698 0.5247,2.05804 0.65543,3.11375 0.0852,0.87624 0.2046,1.74835 0.18494,2.63115 1.1e-4,0.10655 0.004,1.06383 -0.0407,1.09779 -2.71147,2.07136 -2.18917,2.38284 -3.8668,2.30517 -0.89069,-0.0735 -1.77903,-0.12049 -2.67405,-0.0915 -1.26937,-0.002 -2.53873,-0.004 -3.8081,-0.004 -1.14177,2.6e-4 -2.2836,-0.005 -3.42532,0.007 -0.78591,0.0166 -1.60869,-0.0103 -2.35387,0.27396 1.06037,-0.62248 2.12477,-1.23814 3.18111,-1.86743 0.059,-0.0351 -0.12765,0.0513 -0.18784,0.0843 -0.25104,0.13751 -0.35447,0.28057 -0.30715,0.57767 0.11763,0.76461 0.46419,1.49001 0.68989,2.22592 0.49045,1.31736 0.87927,2.6729 1.20244,4.04051 0.44945,1.94488 0.92535,3.88368 1.35934,5.83224 0.50675,2.18018 1.05517,4.35026 1.53789,6.53602 0.50387,2.27386 0.97963,4.55569 1.65208,6.78771 0.57749,2.19457 1.05893,4.41503 1.48093,6.64458 0.27738,1.6618 0.51894,3.33572 0.36971,5.02516 -0.0831,1.03791 -0.20623,2.08779 -0.91943,2.90452 -1.73395,1.59674 -3.90263,2.64877 -6.18139,3.12569 -1.53309,0.26378 -3.08065,0.44214 -4.63584,0.50371 -1.7985,0.0879 -3.59859,0.0926 -5.39806,0.0167 -1.66058,-0.0885 -3.41944,-0.12507 -4.92166,-0.91519 -1.03315,-0.70069 -1.7408,-1.49759 -2.11702,-2.71367 -0.42475,-1.35215 -0.65542,-2.75106 -0.85755,-4.15189 -0.27498,-1.88781 -0.45785,-3.78842 -0.57301,-5.69259 -0.16837,-2.26163 -0.3053,-4.52577 -0.54202,-6.78176 -0.22353,-2.63685 -0.54294,-5.26361 -0.83182,-7.89384 -0.319,-2.75187 -0.55383,-5.51289 -0.86614,-8.26558 -0.26387,-2.8949 -0.54806,-5.78797 -0.83568,-8.68059 -0.28667,-2.98848 -0.63555,-5.9712 -0.85864,-8.96552 -0.27536,-3.05332 -0.60327,-6.10152 -0.83252,-9.15866 -0.23765,-3.23176 -0.31645,-6.4728 -0.60381,-9.70138 -0.17916,-2.70323 -0.35405,-5.4073 -0.46533,-8.11428 -0.11638,-2.75138 -0.14986,-5.50425 -0.24784,-8.2563 -0.0942,-2.34455 -0.10784,-4.68879 -0.14122,-7.03484 -0.0659,-2.36384 -0.17546,-4.72683 -0.41702,-7.08019 -0.15271,-1.92983 -0.35041,-3.85576 -0.51312,-5.7848 -0.13048,-1.84976 -0.27675,-3.69935 -0.4649,-5.54403 -0.18975,-1.65515 -0.34606,-3.31407 -0.50792,-4.97211 -0.13439,-1.28591 -0.23138,-2.57576 -0.39578,-3.85836 -0.12121,-0.67125 -0.18931,-1.54705 -0.71043,-2.03403 -0.64869,-0.11599 -1.26843,0.31663 -1.88264,0.45686 -1.35716,0.42697 -2.69177,0.91439 -4.03025,1.39579 -1.75949,0.57334 -3.53926,1.0702 -5.37083,1.35848 -1.35669,0.2459 -2.72321,0.48106 -4.03209,0.9262 -0.37036,0.14095 -0.62855,0.23044 -0.98539,0.4003 -0.15237,0.0725 -0.59373,0.32062 -0.44889,0.23404 0.98682,-0.58991 1.9836,-1.16301 2.97546,-1.7444 0.11954,-0.0701 -0.24903,0.12546 -0.35848,0.21043 -0.10194,0.0791 -0.18,0.18496 -0.27,0.27744 -0.58025,0.68107 -0.76857,1.51925 -0.91214,2.3878 -0.20038,1.36922 -0.45041,2.73447 -0.47336,4.12294 -0.11417,1.97483 -0.17971,3.949 -0.14211,5.92775 7.9e-4,2.34044 0.004,4.68112 0.0545,7.02112 0.0797,2.99563 0.22816,5.98836 0.4573,8.97653 0.17557,2.91057 0.34652,5.82131 0.56423,8.72912 0.26432,2.90994 0.66691,5.80328 1.03038,8.70201 0.33342,2.79054 0.6996,5.5772 1.03122,8.36801 0.23071,2.12631 0.43588,4.25564 0.61658,6.38674 0.13724,1.4293 0.28995,2.86105 0.32295,4.29704 0.007,0.75499 0.074,1.54416 -0.19807,2.26346 -2.62686,1.59536 -3.22231,2.38967 -5.75222,2.72688 -1.56659,0.19583 -3.14335,0.25093 -4.71887,0.33561 -1.27776,0.0529 -2.56817,0.0262 -3.83012,0.26244 -0.1607,0.0402 -0.32395,0.0713 -0.4821,0.12056 -0.14547,0.0453 -0.55605,0.24404 -0.42715,0.16279 0.99441,-0.62682 2.02105,-1.20097 3.03027,-1.80365 0.0883,-0.0528 -0.18587,0.0913 -0.26758,0.15383 -0.15563,0.11909 -0.20058,0.23493 -0.29591,0.39959 -0.23765,0.62615 -0.16438,1.28636 -0.12305,1.94277 0.0809,1.2047 0.21591,2.40692 0.22902,3.61507 0.0604,1.79504 0.17268,3.58759 0.37824,5.37247 0.17971,2.05955 0.48982,4.10237 0.77407,6.14951 0.37489,2.87972 0.80826,5.75215 1.11008,8.641 0.47865,4.18057 0.79167,8.37359 1.09922,12.56968 0.27544,3.57258 0.5722,7.14193 1.01156,10.69888 0.26053,2.83578 0.53697,5.67439 0.57975,8.52388 0.007,2.22843 -0.0787,4.46981 -0.41452,6.67512 -0.1249,0.5651 -0.22915,1.22235 -0.59619,1.69709 -0.0911,0.11782 -0.20877,0.21749 -0.33684,0.29349 -3.60923,2.14174 -2.4374,1.75604 -4.25733,2.29637 -1.41261,0.23645 -2.84793,0.12033 -4.2739,0.1742 -1.52084,0.0435 -3.05378,0.0646 -4.55049,0.36779 -0.95406,0.17271 -1.90263,0.37894 -2.86213,0.51635 -0.58623,0.0343 -1.28189,0.0334 -1.1717,-0.76193 0.15196,-0.38257 0.25414,-0.77243 0.40745,-1.15597 0.067,-0.49238 0.1809,-0.96915 0.062,-1.46632 -0.0983,-0.82338 -0.1183,-1.63843 -0.0366,-2.46624 0.0423,-1.06005 0.0313,-2.1104 -0.0892,-3.16638 0.002,-1.24251 0.004,-2.48528 -0.0327,-3.72738 -0.0648,-1.77786 -0.18786,-3.55358 -0.43263,-5.31675 -0.21498,-1.62938 -0.40584,-3.26363 -0.39905,-4.90983 -0.0519,-1.41883 -0.16506,-2.84051 -0.0942,-4.2599 0.0561,-0.96453 0.19274,-1.93332 0.0975,-2.89805 -0.0822,-0.56082 -0.20614,-1.08424 -0.76426,-1.34413 -0.6994,-0.25381 -1.4483,-0.14735 -2.17901,-0.15329 -1.01747,0.0258 -2.03642,0.0671 -3.04498,0.21355 -1.00596,0.14929 -2.01194,0.32481 -3.03169,0.34144 -0.98926,-0.0214 -2.02495,-0.0155 -2.89494,-0.5523 -0.12081,-0.10777 -0.25689,-0.20053 -0.36242,-0.3233 -0.82009,-0.95412 -0.63181,-2.37129 -0.55912,-3.51665 0.299,-2.2646 0.77704,-4.50007 1.24088,-6.73578 0.28936,-1.58759 0.54762,-3.18865 0.66238,-4.79898 0.0428,-0.96515 0.0298,-1.96008 -0.25181,-2.892 -0.28472,-0.62709 -0.72753,-1.08057 -1.35751,-1.37455 -0.68517,-0.30467 -1.41059,-0.49208 -2.12982,-0.69872 -0.80932,-0.22965 -1.60841,-0.50728 -2.36306,-0.88198 -0.8026,-0.48112 -1.3309,-0.98488 -1.59856,-1.91395 -0.32363,-1.28654 -0.29083,-2.6118 -0.27134,-3.93059 0.004,-1.99211 0.01,-3.98422 0.007,-5.97633 -5.3e-4,-2.02474 -8e-4,-4.04948 -0.005,-6.07421 -0.0105,-1.98879 -0.0234,-3.97801 -0.0985,-5.96564 -0.0783,-1.92699 -0.20213,-3.85257 -0.18306,-5.78211 -0.0304,-1.92246 -0.0836,-3.84615 -0.27167,-5.76081 -0.19811,-2.06919 -0.37977,-4.14136 -0.4834,-6.21755 -0.0612,-1.69006 -0.044,-3.3828 -0.001,-5.0733 0.0626,-1.46176 0.18544,-2.91901 0.35373,-4.37247 0.10244,-1.42392 0.32177,-2.83361 0.46539,-4.25363 0.14996,-1.2884 0.28581,-2.57756 0.47201,-3.86161 0.11657,-0.73003 0.18386,-1.46746 0.34765,-2.19012 0.0495,-0.63577 0.15003,-1.2816 -0.13493,-1.8791 -0.0424,-0.0715 -0.0736,-0.15098 -0.12717,-0.2146 -0.19289,-0.22928 -0.90007,-0.01 -1.17517,-0.15216 -0.83265,-0.16633 -1.63084,-0.44698 -2.39583,-0.81694 -0.9251,-0.42705 -1.85562,-0.84844 -2.72186,-1.38933 -0.93311,-0.56476 -1.83365,-1.16126 -2.62846,-1.91545 -0.35268,-0.29303 -0.69666,-0.61524 -1.08204,-0.86622 -0.0938,-0.0611 -0.18691,-0.12735 -0.29219,-0.16526 -0.0615,-0.0222 -0.25111,0.0243 -0.19575,-0.0104 1.07409,-0.67365 2.18721,-1.28296 3.28081,-1.92444 -0.0522,0.01 -0.1104,0.003 -0.15659,0.0289 -0.28817,0.16315 -0.11797,1.08609 -0.16794,1.37292 -0.0251,1.1084 -0.0588,2.21665 -0.0683,3.32535 0.002,1.60855 0.0248,3.21854 0.0642,4.82683 -0.0104,2.24599 -0.0232,4.49318 -0.13289,6.73693 -0.18383,3.11436 -0.45793,6.22163 -0.90581,9.31033 -0.49602,3.44838 -1.04543,6.88796 -1.7181,10.30686 -0.52212,2.94565 -1.10555,5.88705 -1.33435,8.87491 -0.19107,2.25657 -0.40955,4.51094 -0.60951,6.76647 -0.16065,1.55981 -0.2584,3.12506 -0.42498,4.68434 -0.26639,2.86902 -0.50247,2.09752 -4.02009,4.09259 -0.63643,0.10375 -1.28493,0.0291 -1.92693,0.0596 -0.66988,0.0118 -1.34104,0.0311 -2.00599,0.11985 -0.62036,0.0966 -1.23554,0.20888 -1.8662,0.21792 -0.38357,0.0402 -0.77176,0.0757 -1.14798,0.16517 -1.34907,0.32064 -3.22888,1.78432 2.68125,-1.6967 -0.59412,0.17203 -0.55599,0.54807 -0.6462,1.09399 -0.14596,0.73455 -0.18384,1.47975 -0.31309,2.21795 -0.18339,1.02409 -0.43357,2.03975 -0.50895,3.07992 -0.14645,1.1653 -0.18178,2.33795 -0.318,3.50459 -0.16739,1.33732 -0.35171,2.67283 -0.57196,4.00273 -0.23763,1.84886 -0.46728,3.70129 -0.87014,5.52334 -0.41075,2.09003 -0.81387,4.185 -1.02415,6.30667 -0.25912,2.19396 -0.39039,4.39854 -0.43976,6.60717 -0.075,2.36879 -0.0407,4.73662 0.10552,7.10284 0.13301,2.22292 0.31145,4.44457 0.30479,6.67331 -0.0568,1.73328 -0.13121,3.47483 -0.50761,5.1743 -0.2289,1.12817 -0.51358,2.31371 -1.25649,3.22448 -1.2886,1.31245 -3.21038,2.34015 -5.0612,2.75995 -0.78957,0.0835 -1.58123,-0.005 -2.36754,-0.0919 -1.29571,-0.17529 -2.5805,-0.42945 -3.80194,-0.91065 -1.21729,-0.46984 -2.40061,-0.9959 -3.45654,-1.77869 0,0 3.35948,-2.1166 3.35948,-2.1166 z"
       inkscape:connector-curvature="0" />
    <path
       style="fill:none;fill-opacity:1;stroke-width:0.26458332;stroke:#ff8080;stroke-opacity:1"
       id="path38"
       d="m 128.61091,241.68684 c -0.16858,-1.11633 -0.32016,-2.23431 -0.41421,-3.35949 -0.0112,-0.72851 -0.13478,-1.44428 -0.22729,-2.16467 -0.0744,-0.59351 -0.0746,-1.19079 -0.17421,-1.78088 -0.12347,-0.49474 -0.13617,-0.98771 -0.10923,-1.49191 -0.0843,-1.40284 -0.0556,-0.41713 3.55997,-1.78731 0.1,-0.0379 0.0401,0.21006 0.059,0.3153 0.0248,0.13846 0.0489,0.27706 0.0723,0.41579 0.0891,0.53031 0.10891,0.67016 0.19386,1.21797 0.17922,1.45206 0.30759,2.91017 0.50477,4.36055 0.12065,0.97632 0.26996,1.94526 0.46199,2.90972 -0.004,0.44624 0.32892,0.85054 0.24613,1.2894 -0.22076,0.15333 -0.3576,-0.022 -0.0743,0.25523 0.61508,0.43047 1.28802,0.79987 1.98095,1.09165 0.52379,0.20122 1.04685,0.36605 1.60401,0.44056 0.52371,0.0536 1.05096,0.0509 1.57676,0.0515 0.4897,0.0532 0.94463,-0.11889 1.42153,-0.19406 0,0 -3.18188,2.39869 -3.18188,2.39869 v 0 c -0.48477,0.0968 -0.96412,0.17487 -1.46179,0.13329 -0.53889,-0.006 -1.08039,-0.0134 -1.61326,-0.1031 -0.57189,-0.11306 -1.11979,-0.30244 -1.65675,-0.52893 -0.71741,-0.34351 -1.43155,-0.72157 -2.064,-1.20568 -0.21854,-0.21582 -0.58545,-0.60524 -0.2559,-0.8837 0.0426,0.0212 0.086,0.0409 0.12777,0.0637 0.0281,0.0153 0.0606,0.0744 0.0817,0.0504 0.0189,-0.0216 -0.30331,-0.89574 -0.23424,-0.9893 -0.18103,-0.97715 -0.33175,-1.95538 -0.44329,-2.94351 -0.20075,-1.44671 -0.30833,-2.90481 -0.50259,-4.35225 -0.0872,-0.53444 -0.17616,-1.06948 -0.28725,-1.59965 -0.0219,-0.10459 -0.16189,-0.25135 -0.0739,-0.31196 1.11141,-0.76531 2.30825,-1.40051 3.4946,-2.04355 0.0412,-0.0223 0.0124,0.0928 0.0187,0.13925 0.008,0.21664 -0.0523,0.41492 -0.0486,0.62884 0.005,0.27027 0.0849,0.53813 0.11671,0.80504 0.10923,0.59758 0.12783,1.19651 0.17869,1.80141 0.087,0.72914 0.2309,1.45079 0.22208,2.18859 0.0761,1.11418 0.20233,2.22494 0.40671,3.32346 0,0 -3.50536,1.85962 -3.50536,1.85962 z"
       inkscape:connector-curvature="0" />
    <path
       style="fill:none;fill-opacity:1;stroke-width:0.26458332;stroke:#ff8080;stroke-opacity:1"
       id="path40"
       d="m 25.148555,244.24796 c 1.114293,-0.56775 2.250366,-1.08105 3.43534,-1.48217 0.811665,-0.24748 1.636339,-0.43469 2.439112,-0.70673 0.548772,-0.31415 0.632788,0.2534 0.568338,0.67001 -0.09193,0.59282 -0.145955,1.19719 -0.114716,1.79693 0.05139,0.52151 0.23327,1.01674 0.365776,1.52084 0.30592,1.42794 0.544523,2.86964 0.818288,4.30416 0.394634,1.78928 0.691433,3.59763 1.04454,5.39511 0.171366,0.81947 0.370748,1.63251 0.537515,2.45296 0.105635,0.51971 0.189171,1.0137 0.38174,1.50802 0.05282,-0.003 0.112446,0.0161 0.158451,-0.0101 0.08695,-0.0494 0.30779,-0.25148 0.219356,-0.20475 -1.039858,0.54945 -2.049177,1.15501 -3.082097,1.71739 -0.125362,0.0682 0.241115,-0.153 0.358341,-0.23444 0.240567,-0.16713 0.47325,-0.34536 0.711923,-0.51519 1.692674,-1.02506 3.347616,-2.25164 5.286957,-2.73836 0.376033,-0.0944 0.757922,-0.16398 1.134842,-0.25476 0.969114,-0.19685 1.957584,-0.38189 2.949522,-0.32763 0.682528,0.0442 1.35232,0.13291 1.993615,0.37595 0.276577,0.0538 0.589811,0.25502 0.884102,0.19292 0.07209,-0.0152 0.254527,-0.1485 0.189762,-0.11336 -3.295581,1.78788 -3.860514,2.78475 -3.035326,1.47457 0.295296,-1.07251 0.25991,-2.21792 0.215267,-3.3213 -0.08871,-1.38188 -0.182237,-2.7631 -0.228076,-4.14719 -0.05011,-0.85758 0.02048,-1.71584 0.117726,-2.56751 0.0013,-0.0328 0.0028,-0.0655 0.0043,-0.0983 0,0 3.626244,-1.69144 3.626244,-1.69144 v 0 c -0.01524,0.0131 -0.03047,0.0263 -0.0457,0.0395 -0.191474,0.81875 -0.205926,1.68214 -0.19721,2.51765 0.04192,1.38207 0.113162,2.7628 0.224157,4.14119 0.06798,1.15253 0.07198,2.32324 -0.111164,3.4657 -0.584915,2.16911 -3.10523,3.07299 -4.936538,2.33925 -0.622874,-0.18362 -1.264899,-0.2618 -1.913652,-0.28335 -0.970486,0.0167 -1.932297,0.17817 -2.876269,0.3987 -0.55362,0.13143 -1.102471,0.25681 -1.636049,0.45822 -0.167293,0.0632 -0.647543,0.29922 -0.496077,0.20418 1.114948,-0.69961 4.189322,-2.45 2.539552,-1.50924 -0.368241,0.23138 -0.68645,0.54744 -1.060137,0.76454 -1.248701,0.72544 -2.480324,1.48481 -3.769852,2.13491 -0.118698,0.0598 -0.274069,0.0157 -0.397325,-0.0341 -0.119079,-0.0481 -0.19762,-0.16406 -0.296429,-0.24609 -0.475689,-1.29627 -0.500478,-2.72396 -0.901673,-4.04482 -0.358193,-1.79595 -0.642597,-3.60624 -1.051693,-5.39203 -0.285972,-1.41887 -0.511818,-2.85043 -0.845738,-4.25887 -0.143933,-0.52623 -0.360645,-1.03217 -0.410905,-1.5805 -0.06027,-0.6225 0.0036,-1.25356 0.06141,-1.87466 0.01662,-0.10032 0.03968,-0.27388 0.06298,-0.27747 0.01667,-0.003 0.153358,0.12641 0.128421,0.17161 -0.05475,0.0992 -0.289288,0.008 -0.318532,0.11904 -0.797669,0.25049 -1.620903,0.41477 -2.410101,0.69526 -1.174717,0.42764 -2.30923,0.95431 -3.411145,1.54463 0,0 3.088872,-2.48894 3.088872,-2.48894 z"
       inkscape:connector-curvature="0" />
    <path
       style="fill:none;fill-opacity:1;stroke-width:0.26458332;stroke:#ff8080;stroke-opacity:1"
       id="path42"
       d="m 15.312336,238.79386 c 2.303866,-0.27458 4.591909,-0.66093 6.880536,-1.03862 0.441217,-0.0424 2.050584,-0.34348 2.436442,0.0602 0.245422,0.25676 0.259005,0.60375 0.315795,0.92428 0.03702,1.02432 -0.122562,2.03497 -0.03924,3.05833 0.102783,0.93874 0.272798,1.86721 0.438245,2.79623 0.05811,0.46501 0.154429,0.92487 0.36593,1.34462 -0.0014,-0.16203 -0.08672,-0.34661 -0.0042,-0.48608 0.05536,-0.0936 0.214414,-0.0367 0.322146,-0.0515 0.462533,-0.0635 0.888094,-0.0949 1.338581,-0.2295 0.649391,-0.19102 1.279247,-0.44305 1.91611,-0.67199 0.594238,-0.2319 1.172573,-0.48467 1.744575,-0.76661 0.429795,-0.18472 0.913911,-0.28793 1.310267,-0.53948 0.630584,-0.17104 0.65205,0.7269 0.657641,1.13857 -0.06673,0.85141 -0.165262,1.69815 -0.162968,2.55301 0.04945,1.00462 0.111257,2.00753 0.234908,3.00584 0.211463,1.46522 0.444735,2.92746 0.709334,4.38402 0.142008,0.89752 0.3331,1.78561 0.466069,2.6846 0.08079,0.39016 0.185267,0.77439 0.268039,1.16412 0,0 -3.510044,1.87761 -3.510044,1.87761 v 0 c -0.07672,-0.40018 -0.179211,-0.79385 -0.266946,-1.19169 -0.119539,-0.8993 -0.319321,-1.78362 -0.439095,-2.68295 -0.252264,-1.4638 -0.4523,-2.93566 -0.730565,-4.39511 -0.129304,-1.0107 -0.193117,-2.02464 -0.252105,-3.04192 -0.03841,-0.85731 0.05464,-1.70845 0.138086,-2.56145 0.0087,-0.12988 0.06281,-0.48287 -0.004,-0.61355 -0.0043,-0.008 -0.149489,0.23327 -0.223885,0.1673 -0.440714,0.16151 -0.87472,0.34508 -1.303872,0.5342 -0.573944,0.28013 -1.177403,0.49157 -1.768415,0.73225 -0.636402,0.23746 -1.278771,0.46706 -1.936949,0.63623 -0.340828,0.0716 -0.680621,0.10512 -1.02282,0.16507 -0.107059,0.0188 -0.21429,0.0386 -0.318767,0.0686 -0.09776,0.028 -0.186946,0.12591 -0.286463,0.10497 -0.18469,-0.0389 -0.331803,-0.17997 -0.497705,-0.26995 0.01876,0.0303 0.02497,0.0739 0.05629,0.091 0.07618,0.0414 -0.05369,-0.16494 -0.081,-0.24726 -0.112011,-0.33767 -0.174967,-0.69122 -0.218431,-1.04335 -0.15802,-0.94151 -0.339553,-1.87848 -0.442991,-2.82853 -0.107237,-1.0178 0.0092,-2.01813 0.03682,-3.03736 -7.68e-4,-0.009 -0.0087,-0.47608 -0.10201,-0.54657 -0.37315,-0.28174 -1.862805,0.0376 -2.254391,0.0517 -2.305735,0.3667 -4.609869,0.74184 -6.922389,1.06427 0,0 3.153458,-2.36365 3.153458,-2.36365 z"
       inkscape:connector-curvature="0" />
  </g>
</svg>
